<?xml version="1.0" encoding="UTF-8" standalone="no"?>
<!-- Created with Inkscape (http://www.inkscape.org/) -->

<svg
   width="420mm"
   height="297mm"
   viewBox="0 0 420 297"
   version="1.1"
   id="svg768"
   inkscape:version="1.1 (c68e22c387, 2021-05-23)"
   sodipodi:docname="LC_inserts_cut.svg"
   xmlns:inkscape="http://www.inkscape.org/namespaces/inkscape"
   xmlns:sodipodi="http://sodipodi.sourceforge.net/DTD/sodipodi-0.dtd"
   xmlns="http://www.w3.org/2000/svg"
   xmlns:svg="http://www.w3.org/2000/svg">
  <sodipodi:namedview
     id="namedview770"
     pagecolor="#ffffff"
     bordercolor="#666666"
     borderopacity="1.0"
     inkscape:pageshadow="2"
     inkscape:pageopacity="0.0"
     inkscape:pagecheckerboard="0"
     inkscape:document-units="mm"
     showgrid="false"
     inkscape:zoom="1.5554293"
     inkscape:cx="148.83351"
     inkscape:cy="361.31504"
     inkscape:window-width="3840"
     inkscape:window-height="2066"
     inkscape:window-x="-11"
     inkscape:window-y="-11"
     inkscape:window-maximized="1"
     inkscape:current-layer="layer1" />
  <defs
     id="defs765">
    <clipPath
       clipPathUnits="userSpaceOnUse"
       id="clipPath31">
      <path
         d="M 0,0 V 1262.88 H 1785.78 V 0 Z"
         id="path29" />
    </clipPath>
  </defs>
  <g
     inkscape:label="Ebene 1"
     inkscape:groupmode="layer"
     id="layer1">
    <g
       id="g33"
       transform="matrix(-0.35277777,-3.5280376e-5,-3.5280376e-5,0.35277777,47.521907,43.520834)"
       style="stroke-width:0.05669291;stroke-miterlimit:10;stroke-dasharray:none">
      <path
         d="M -7.47,7.2e-4 C -7.4704,-4.12485 -4.12628,-7.4696 -7.2e-4,-7.47 4.12485,-7.4704 7.4696,-4.12628 7.47,-7.2e-4 7.4704,4.12485 4.12628,7.4696 7.2e-4,7.47 -4.12485,7.4704 -7.4696,4.12628 -7.47,7.2e-4"
         style="fill:none;stroke:#000000;stroke-width:0.05669291;stroke-linecap:round;stroke-linejoin:round;stroke-miterlimit:10;stroke-dasharray:none;stroke-opacity:1"
         id="path35" />
    </g>
    <g
       id="g37"
       transform="matrix(-0.35277777,-3.5280376e-5,-3.5280376e-5,0.35277777,53.871906,8.5323211)"
       style="stroke-width:0.05669291;stroke-miterlimit:10;stroke-dasharray:none">
      <path
         d="M -7.47,7.2e-4 C -7.4704,-4.12485 -4.12628,-7.4696 -7.2e-4,-7.47 4.12485,-7.4704 7.4696,-4.12628 7.47,-7.2e-4 7.4704,4.12485 4.12628,7.4696 7.2e-4,7.47 -4.12485,7.4704 -7.4696,4.12628 -7.47,7.2e-4"
         style="fill:none;stroke:#000000;stroke-width:0.05669291;stroke-linecap:round;stroke-linejoin:round;stroke-miterlimit:10;stroke-dasharray:none;stroke-opacity:1"
         id="path39" />
    </g>
    <g
       id="g41"
       transform="matrix(-0.35277777,-3.5280376e-5,-3.5280376e-5,0.35277777,82.446907,8.5323177)"
       style="stroke-width:0.05669291;stroke-miterlimit:10;stroke-dasharray:none">
      <path
         d="M -7.47,7.2e-4 C -7.4704,-4.12485 -4.12628,-7.4696 -7.2e-4,-7.47 4.12485,-7.4704 7.4696,-4.12628 7.47,-7.2e-4 7.4704,4.12485 4.12628,7.4696 7.2e-4,7.47 -4.12485,7.4704 -7.4696,4.12628 -7.47,7.2e-4"
         style="fill:none;stroke:#000000;stroke-width:0.05669291;stroke-linecap:round;stroke-linejoin:round;stroke-miterlimit:10;stroke-dasharray:none;stroke-opacity:1"
         id="path43" />
    </g>
    <g
       id="g45"
       transform="matrix(-0.35277777,-3.5280376e-5,-3.5280376e-5,0.35277777,88.7969,14.882318)"
       style="stroke-width:0.05669291;stroke-miterlimit:10;stroke-dasharray:none">
      <path
         d="M -7.47,7.2e-4 C -7.4704,-4.12485 -4.12628,-7.4696 -7.2e-4,-7.47 4.12485,-7.4704 7.4696,-4.12628 7.47,-7.2e-4 7.4704,4.12485 4.12628,7.4696 7.2e-4,7.47 -4.12485,7.4704 -7.4696,4.12628 -7.47,7.2e-4"
         style="fill:none;stroke:#000000;stroke-width:0.05669291;stroke-linecap:round;stroke-linejoin:round;stroke-miterlimit:10;stroke-dasharray:none;stroke-opacity:1"
         id="path47" />
    </g>
    <g
       id="g49"
       transform="matrix(-0.35277777,-3.5280376e-5,-3.5280376e-5,0.35277777,103.8464,49.870836)"
       style="stroke-width:0.05669291;stroke-miterlimit:10;stroke-dasharray:none">
      <path
         d="M -7.47,7.2e-4 C -7.4704,-4.12485 -4.12628,-7.4696 -7.2e-4,-7.47 4.12485,-7.4704 7.4696,-4.12628 7.47,-7.2e-4 7.4704,4.12485 4.12628,7.4696 7.2e-4,7.47 -4.12485,7.4704 -7.4696,4.12628 -7.47,7.2e-4"
         style="fill:none;stroke:#000000;stroke-width:0.05669291;stroke-linecap:round;stroke-linejoin:round;stroke-miterlimit:10;stroke-dasharray:none;stroke-opacity:1"
         id="path51" />
    </g>
    <g
       id="g53"
       transform="matrix(-0.35277777,-3.5280376e-5,-3.5280376e-5,0.35277777,103.8464,8.5323223)"
       style="stroke-width:0.05669291;stroke-miterlimit:10;stroke-dasharray:none">
      <path
         d="M -7.47,7.2e-4 C -7.4704,-4.12485 -4.12628,-7.4696 -7.2e-4,-7.47 4.12485,-7.4704 7.4696,-4.12628 7.47,-7.2e-4 7.4704,4.12485 4.12628,7.4696 7.2e-4,7.47 -4.12485,7.4704 -7.4696,4.12628 -7.47,7.2e-4"
         style="fill:none;stroke:#000000;stroke-width:0.05669291;stroke-linecap:round;stroke-linejoin:round;stroke-miterlimit:10;stroke-dasharray:none;stroke-opacity:1"
         id="path55" />
    </g>
    <g
       id="g57"
       transform="matrix(-0.35277777,-3.5280376e-5,-3.5280376e-5,0.35277777,138.83491,43.520835)"
       style="stroke-width:0.05669291;stroke-miterlimit:10;stroke-dasharray:none">
      <path
         d="M -7.47,7.2e-4 C -7.4704,-4.12485 -4.12628,-7.4696 -7.2e-4,-7.47 4.12485,-7.4704 7.4696,-4.12628 7.47,-7.2e-4 7.4704,4.12485 4.12628,7.4696 7.2e-4,7.47 -4.12485,7.4704 -7.4696,4.12628 -7.47,7.2e-4"
         style="fill:none;stroke:#000000;stroke-width:0.05669291;stroke-linecap:round;stroke-linejoin:round;stroke-miterlimit:10;stroke-dasharray:none;stroke-opacity:1"
         id="path59" />
    </g>
    <g
       id="g61"
       transform="matrix(-0.35277777,-3.5280376e-5,-3.5280376e-5,0.35277777,132.48491,8.5323221)"
       style="stroke-width:0.05669291;stroke-miterlimit:10;stroke-dasharray:none">
      <path
         d="M -7.47,7.2e-4 C -7.4704,-4.12485 -4.12628,-7.4696 -7.2e-4,-7.47 4.12485,-7.4704 7.4696,-4.12628 7.47,-7.2e-4 7.4704,4.12485 4.12628,7.4696 7.2e-4,7.47 -4.12485,7.4704 -7.4696,4.12628 -7.47,7.2e-4"
         style="fill:none;stroke:#000000;stroke-width:0.05669291;stroke-linecap:round;stroke-linejoin:round;stroke-miterlimit:10;stroke-dasharray:none;stroke-opacity:1"
         id="path63" />
    </g>
    <g
       id="g65"
       transform="matrix(-0.35277777,-3.5280376e-5,-3.5280376e-5,0.35277777,138.83491,14.882322)"
       style="stroke-width:0.05669291;stroke-miterlimit:10;stroke-dasharray:none">
      <path
         d="M -7.47,7.2e-4 C -7.4704,-4.12485 -4.12628,-7.4696 -7.2e-4,-7.47 4.12485,-7.4704 7.4696,-4.12628 7.47,-7.2e-4 7.4704,4.12485 4.12628,7.4696 7.2e-4,7.47 -4.12485,7.4704 -7.4696,4.12628 -7.47,7.2e-4"
         style="fill:none;stroke:#000000;stroke-width:0.05669291;stroke-linecap:round;stroke-linejoin:round;stroke-miterlimit:10;stroke-dasharray:none;stroke-opacity:1"
         id="path67" />
    </g>
    <g
       id="g69"
       transform="matrix(-0.35277777,-3.5280376e-5,-3.5280376e-5,0.35277777,132.48491,49.870835)"
       style="stroke-width:0.05669291;stroke-miterlimit:10;stroke-dasharray:none">
      <path
         d="M -7.47,7.2e-4 C -7.4704,-4.12485 -4.12628,-7.4696 -7.2e-4,-7.47 4.12485,-7.4704 7.4696,-4.12628 7.47,-7.2e-4 7.4704,4.12485 4.12628,7.4696 7.2e-4,7.47 -4.12485,7.4704 -7.4696,4.12628 -7.47,7.2e-4"
         style="fill:none;stroke:#000000;stroke-width:0.05669291;stroke-linecap:round;stroke-linejoin:round;stroke-miterlimit:10;stroke-dasharray:none;stroke-opacity:1"
         id="path71" />
    </g>
    <g
       id="g73"
       transform="matrix(-0.35277777,-3.5280376e-5,-3.5280376e-5,0.35277777,97.4964,14.882322)"
       style="stroke-width:0.05669291;stroke-miterlimit:10;stroke-dasharray:none">
      <path
         d="M -7.47,7.2e-4 C -7.4704,-4.12485 -4.12628,-7.4696 -7.2e-4,-7.47 4.12485,-7.4704 7.4696,-4.12628 7.47,-7.2e-4 7.4704,4.12485 4.12628,7.4696 7.2e-4,7.47 -4.12485,7.4704 -7.4696,4.12628 -7.47,7.2e-4"
         style="fill:none;stroke:#000000;stroke-width:0.05669291;stroke-linecap:round;stroke-linejoin:round;stroke-miterlimit:10;stroke-dasharray:none;stroke-opacity:1"
         id="path75" />
    </g>
    <g
       id="g77"
       transform="matrix(-0.35277777,-3.5280376e-5,-3.5280376e-5,0.35277777,97.4964,43.520836)"
       style="stroke-width:0.05669291;stroke-miterlimit:10;stroke-dasharray:none">
      <path
         d="M -7.47,7.2e-4 C -7.4704,-4.12485 -4.12628,-7.4696 -7.2e-4,-7.47 4.12485,-7.4704 7.4696,-4.12628 7.47,-7.2e-4 7.4704,4.12485 4.12628,7.4696 7.2e-4,7.47 -4.12485,7.4704 -7.4696,4.12628 -7.47,7.2e-4"
         style="fill:none;stroke:#000000;stroke-width:0.05669291;stroke-linecap:round;stroke-linejoin:round;stroke-miterlimit:10;stroke-dasharray:none;stroke-opacity:1"
         id="path79" />
    </g>
    <g
       id="g81"
       transform="matrix(-0.35277777,-3.5280376e-5,-3.5280376e-5,0.35277777,88.7969,43.520838)"
       style="stroke-width:0.05669291;stroke-miterlimit:10;stroke-dasharray:none">
      <path
         d="M -7.47,7.2e-4 C -7.4704,-4.12485 -4.12628,-7.4696 -7.2e-4,-7.47 4.12485,-7.4704 7.4696,-4.12628 7.47,-7.2e-4 7.4704,4.12485 4.12628,7.4696 7.2e-4,7.47 -4.12485,7.4704 -7.4696,4.12628 -7.47,7.2e-4"
         style="fill:none;stroke:#000000;stroke-width:0.05669291;stroke-linecap:round;stroke-linejoin:round;stroke-miterlimit:10;stroke-dasharray:none;stroke-opacity:1"
         id="path83" />
    </g>
    <g
       id="g85"
       transform="matrix(-0.35277777,-3.5280376e-5,-3.5280376e-5,0.35277777,82.446907,49.870838)"
       style="stroke-width:0.05669291;stroke-miterlimit:10;stroke-dasharray:none">
      <path
         d="M -7.47,7.2e-4 C -7.4704,-4.12485 -4.12628,-7.4696 -7.2e-4,-7.47 4.12485,-7.4704 7.4696,-4.12628 7.47,-7.2e-4 7.4704,4.12485 4.12628,7.4696 7.2e-4,7.47 -4.12485,7.4704 -7.4696,4.12628 -7.47,7.2e-4"
         style="fill:none;stroke:#000000;stroke-width:0.05669291;stroke-linecap:round;stroke-linejoin:round;stroke-miterlimit:10;stroke-dasharray:none;stroke-opacity:1"
         id="path87" />
    </g>
    <g
       id="g89"
       transform="matrix(-0.35277777,-3.5280376e-5,-3.5280376e-5,0.35277777,53.871906,49.870834)"
       style="stroke-width:0.05669291;stroke-miterlimit:10;stroke-dasharray:none">
      <path
         d="M -7.47,7.2e-4 C -7.4704,-4.12485 -4.12628,-7.4696 -7.2e-4,-7.47 4.12485,-7.4704 7.4696,-4.12628 7.47,-7.2e-4 7.4704,4.12485 4.12628,7.4696 7.2e-4,7.47 -4.12485,7.4704 -7.4696,4.12628 -7.47,7.2e-4"
         style="fill:none;stroke:#000000;stroke-width:0.05669291;stroke-linecap:round;stroke-linejoin:round;stroke-miterlimit:10;stroke-dasharray:none;stroke-opacity:1"
         id="path91" />
    </g>
    <g
       id="g93"
       transform="matrix(-0.35277777,-3.5280376e-5,-3.5280376e-5,0.35277777,47.521906,14.882321)"
       style="stroke-width:0.05669291;stroke-miterlimit:10;stroke-dasharray:none">
      <path
         d="M -7.47,7.2e-4 C -7.4704,-4.12485 -4.12628,-7.4696 -7.2e-4,-7.47 4.12485,-7.4704 7.4696,-4.12628 7.47,-7.2e-4 7.4704,4.12485 4.12628,7.4696 7.2e-4,7.47 -4.12485,7.4704 -7.4696,4.12628 -7.47,7.2e-4"
         style="fill:none;stroke:#000000;stroke-width:0.05669291;stroke-linecap:round;stroke-linejoin:round;stroke-miterlimit:10;stroke-dasharray:none;stroke-opacity:1"
         id="path95" />
    </g>
    <g
       id="g97"
       transform="matrix(-0.35277777,-3.5280376e-5,-3.5280376e-5,0.35277777,5.0404073,52.093313)"
       style="stroke-width:0.05669291;stroke-miterlimit:10;stroke-dasharray:none">
      <path
         d="M 5.67,0 C 5.67,3.13124 3.13179,5.6697 5.4e-4,5.67"
         style="fill:none;stroke:#000000;stroke-width:0.05669291;stroke-linecap:round;stroke-linejoin:round;stroke-miterlimit:10;stroke-dasharray:none;stroke-opacity:1"
         id="path99" />
    </g>
    <g
       id="g101"
       transform="matrix(-3.5280376e-5,0.35277777,0.35277777,3.5280376e-5,141.0574,52.093312)"
       style="stroke-width:0.05669291;stroke-miterlimit:10;stroke-dasharray:none">
      <path
         d="M 5.67,0 C 5.67,3.13124 3.13179,5.6697 5.4e-4,5.67"
         style="fill:none;stroke:#000000;stroke-width:0.05669291;stroke-linecap:round;stroke-linejoin:round;stroke-miterlimit:10;stroke-dasharray:none;stroke-opacity:1"
         id="path103" />
    </g>
    <g
       id="g105"
       transform="matrix(3.5280376e-5,-0.35277777,-0.35277777,-3.5280376e-5,5.0404064,6.3098219)"
       style="stroke-width:0.05669291;stroke-miterlimit:10;stroke-dasharray:none">
      <path
         d="M 5.67,0 C 5.67,3.13124 3.13179,5.6697 5.4e-4,5.67"
         style="fill:none;stroke:#000000;stroke-width:0.05669291;stroke-linecap:round;stroke-linejoin:round;stroke-miterlimit:10;stroke-dasharray:none;stroke-opacity:1"
         id="path107" />
    </g>
    <path
       d="m 143.05766,6.3098229 c 0,-1.1046248 -0.89544,-2.0001371 -2.00006,-2.0002429"
       style="fill:none;stroke:#000000;stroke-width:0.02;stroke-linecap:round;stroke-linejoin:round;stroke-miterlimit:10;stroke-dasharray:none;stroke-opacity:1"
       id="path109" />
    <path
       d="M 5.0721564,54.093575 H 141.08915"
       style="fill:none;stroke:#000000;stroke-width:0.02;stroke-linecap:round;stroke-linejoin:round;stroke-miterlimit:10;stroke-dasharray:none;stroke-opacity:1"
       id="path111" />
    <path
       d="M 143.05766,52.125072 V 6.3415835"
       style="fill:none;stroke:#000000;stroke-width:0.02;stroke-linecap:round;stroke-linejoin:round;stroke-miterlimit:10;stroke-dasharray:none;stroke-opacity:1"
       id="path113" />
    <path
       d="M 3.0401564,6.3415835 V 52.125072"
       style="fill:none;stroke:#000000;stroke-width:0.02;stroke-linecap:round;stroke-linejoin:round;stroke-miterlimit:10;stroke-dasharray:none;stroke-opacity:1"
       id="path115" />
    <g
       id="g117"
       transform="matrix(-0.35277777,-3.5280376e-5,-3.5280376e-5,0.35277777,118.1339,29.233338)"
       style="stroke-width:0.05669291;stroke-miterlimit:10;stroke-dasharray:none">
      <path
         d="M -42.57,0.00408 C -42.57225,-23.50668 -23.51484,-42.56775 -0.00408,-42.57 23.50668,-42.57225 42.56775,-23.51484 42.57,-0.00408 42.57225,23.50668 23.51484,42.56775 0.00408,42.57 -23.50668,42.57225 -42.56775,23.51484 -42.57,0.00408"
         style="fill:none;stroke:#000000;stroke-width:0.05669291;stroke-linecap:round;stroke-linejoin:round;stroke-miterlimit:10;stroke-dasharray:none;stroke-opacity:1"
         id="path119" />
    </g>
    <path
       d="M 141.08915,4.30958 H 5.0721564"
       style="fill:none;stroke:#000000;stroke-width:0.02;stroke-linecap:round;stroke-linejoin:round;stroke-miterlimit:10;stroke-dasharray:none;stroke-opacity:1"
       id="path121" />
    <g
       id="g123"
       transform="matrix(-0.35277777,-3.5280376e-5,-3.5280376e-5,0.35277777,172.36291,29.23334)"
       style="stroke-width:0.05669291;stroke-miterlimit:10;stroke-dasharray:none">
      <path
         d="M -35.37,0.00339 C -35.37187,-19.53092 -19.5377,-35.36813 -0.00339,-35.37 19.53092,-35.37187 35.36813,-19.5377 35.37,-0.00339 35.37187,19.53092 19.5377,35.36813 0.00339,35.37 -19.53092,35.37187 -35.36813,19.5377 -35.37,0.00339"
         style="fill:none;stroke:#000000;stroke-width:0.05669291;stroke-linecap:round;stroke-linejoin:round;stroke-miterlimit:10;stroke-dasharray:none;stroke-opacity:1"
         id="path125" />
    </g>
    <g
       id="g127"
       transform="matrix(-0.35277777,-3.5280376e-5,-3.5280376e-5,0.35277777,187.85691,44.219331)"
       style="stroke-width:0.05669291;stroke-miterlimit:10;stroke-dasharray:none">
      <path
         d="M -4.23,4.1e-4 C -4.23022,-2.33576 -2.33657,-4.22978 -4.1e-4,-4.23 2.33576,-4.23022 4.22978,-2.33657 4.23,-4.1e-4 4.23022,2.33576 2.33657,4.22978 4.1e-4,4.23 -2.33576,4.23022 -4.22978,2.33657 -4.23,4.1e-4"
         style="fill:none;stroke:#000000;stroke-width:0.05669291;stroke-linecap:round;stroke-linejoin:round;stroke-miterlimit:10;stroke-dasharray:none;stroke-opacity:1"
         id="path129" />
    </g>
    <g
       id="g131"
       transform="matrix(-0.35277777,-3.5280376e-5,-3.5280376e-5,0.35277777,156.8689,14.183828)"
       style="stroke-width:0.05669291;stroke-miterlimit:10;stroke-dasharray:none">
      <path
         d="M -4.23,4.1e-4 C -4.23022,-2.33576 -2.33657,-4.22978 -4.1e-4,-4.23 2.33576,-4.23022 4.22978,-2.33657 4.23,-4.1e-4 4.23022,2.33576 2.33657,4.22978 4.1e-4,4.23 -2.33576,4.23022 -4.22978,2.33657 -4.23,4.1e-4"
         style="fill:none;stroke:#000000;stroke-width:0.05669291;stroke-linecap:round;stroke-linejoin:round;stroke-miterlimit:10;stroke-dasharray:none;stroke-opacity:1"
         id="path133" />
    </g>
    <path
       d="m 155.24966,4.0555694 v 3.7464964 l -4.2545,4.2545002 h -3.74651 v 34.290002 h 3.74651 l 4.2545,4.2545 v 3.7465 h 34.2265 v -3.7465 l 4.2545,-4.2545 h 3.7465 V 12.056566 h -3.7465 l -4.2545,-4.2545002 V 4.0555694 h -34.2265"
       style="fill:none;stroke:#000000;stroke-width:0.02;stroke-linecap:round;stroke-linejoin:round;stroke-miterlimit:10;stroke-dasharray:none;stroke-opacity:1"
       id="path135" />
    <g
       id="g137"
       transform="matrix(-0.35277777,-3.5280376e-5,-3.5280376e-5,0.35277777,54.379906,67.52381)"
       style="stroke-width:0.05669291;stroke-miterlimit:10;stroke-dasharray:none">
      <path
         d="M -4.23,4.1e-4 C -4.23022,-2.33576 -2.33657,-4.22978 -4.1e-4,-4.23 2.33576,-4.23022 4.22978,-2.33657 4.23,-4.1e-4 4.23022,2.33576 2.33657,4.22978 4.1e-4,4.23 -2.33576,4.23022 -4.22978,2.33657 -4.23,4.1e-4"
         style="fill:none;stroke:#000000;stroke-width:0.05669291;stroke-linecap:round;stroke-linejoin:round;stroke-miterlimit:10;stroke-dasharray:none;stroke-opacity:1"
         id="path139" />
    </g>
    <g
       id="g141"
       transform="matrix(-0.35277777,-3.5280376e-5,-3.5280376e-5,0.35277777,7.8979074,67.523807)"
       style="stroke-width:0.05669291;stroke-miterlimit:10;stroke-dasharray:none">
      <path
         d="M -4.23,4.1e-4 C -4.23022,-2.33576 -2.33657,-4.22978 -4.1e-4,-4.23 2.33576,-4.23022 4.22978,-2.33657 4.23,-4.1e-4 4.23022,2.33576 2.33657,4.22978 4.1e-4,4.23 -2.33576,4.23022 -4.22978,2.33657 -4.23,4.1e-4"
         style="fill:none;stroke:#000000;stroke-width:0.05669291;stroke-linecap:round;stroke-linejoin:round;stroke-miterlimit:10;stroke-dasharray:none;stroke-opacity:1"
         id="path143" />
    </g>
    <g
       id="g145"
       transform="matrix(-0.35277777,-3.5280376e-5,-3.5280376e-5,0.35277777,54.379906,84.033824)"
       style="stroke-width:0.05669291;stroke-miterlimit:10;stroke-dasharray:none">
      <path
         d="M -4.23,4.1e-4 C -4.23022,-2.33576 -2.33657,-4.22978 -4.1e-4,-4.23 2.33576,-4.23022 4.22978,-2.33657 4.23,-4.1e-4 4.23022,2.33576 2.33657,4.22978 4.1e-4,4.23 -2.33576,4.23022 -4.22978,2.33657 -4.23,4.1e-4"
         style="fill:none;stroke:#000000;stroke-width:0.05669291;stroke-linecap:round;stroke-linejoin:round;stroke-miterlimit:10;stroke-dasharray:none;stroke-opacity:1"
         id="path147" />
    </g>
    <g
       id="g149"
       transform="matrix(-0.35277777,-3.5280376e-5,-3.5280376e-5,0.35277777,7.8979073,84.033828)"
       style="stroke-width:0.05669291;stroke-miterlimit:10;stroke-dasharray:none">
      <path
         d="M -4.23,4.1e-4 C -4.23022,-2.33576 -2.33657,-4.22978 -4.1e-4,-4.23 2.33576,-4.23022 4.22978,-2.33657 4.23,-4.1e-4 4.23022,2.33576 2.33657,4.22978 4.1e-4,4.23 -2.33576,4.23022 -4.22978,2.33657 -4.23,4.1e-4"
         style="fill:none;stroke:#000000;stroke-width:0.05669291;stroke-linecap:round;stroke-linejoin:round;stroke-miterlimit:10;stroke-dasharray:none;stroke-opacity:1"
         id="path151" />
    </g>
    <path
       d="M 58.983655,92.257075 V 59.300579 H 3.2941564 V 92.257075 H 58.983655"
       style="fill:none;stroke:#000000;stroke-width:0.02;stroke-linecap:round;stroke-linejoin:round;stroke-miterlimit:10;stroke-dasharray:none;stroke-opacity:1"
       id="path153" />
    <g
       id="g155"
       transform="matrix(-0.35277777,-3.5280376e-5,-3.5280376e-5,0.35277777,111.52991,67.52381)"
       style="stroke-width:0.05669291;stroke-miterlimit:10;stroke-dasharray:none">
      <path
         d="M -4.23,4.1e-4 C -4.23022,-2.33576 -2.33657,-4.22978 -4.1e-4,-4.23 2.33576,-4.23022 4.22978,-2.33657 4.23,-4.1e-4 4.23022,2.33576 2.33657,4.22978 4.1e-4,4.23 -2.33576,4.23022 -4.22978,2.33657 -4.23,4.1e-4"
         style="fill:none;stroke:#000000;stroke-width:0.05669291;stroke-linecap:round;stroke-linejoin:round;stroke-miterlimit:10;stroke-dasharray:none;stroke-opacity:1"
         id="path157" />
    </g>
    <g
       id="g159"
       transform="matrix(-0.35277777,-3.5280376e-5,-3.5280376e-5,0.35277777,65.04791,67.523807)"
       style="stroke-width:0.05669291;stroke-miterlimit:10;stroke-dasharray:none">
      <path
         d="M -4.23,4.1e-4 C -4.23022,-2.33576 -2.33657,-4.22978 -4.1e-4,-4.23 2.33576,-4.23022 4.22978,-2.33657 4.23,-4.1e-4 4.23022,2.33576 2.33657,4.22978 4.1e-4,4.23 -2.33576,4.23022 -4.22978,2.33657 -4.23,4.1e-4"
         style="fill:none;stroke:#000000;stroke-width:0.05669291;stroke-linecap:round;stroke-linejoin:round;stroke-miterlimit:10;stroke-dasharray:none;stroke-opacity:1"
         id="path161" />
    </g>
    <g
       id="g163"
       transform="matrix(-0.35277777,-3.5280376e-5,-3.5280376e-5,0.35277777,111.52991,84.033824)"
       style="stroke-width:0.05669291;stroke-miterlimit:10;stroke-dasharray:none">
      <path
         d="M -4.23,4.1e-4 C -4.23022,-2.33576 -2.33657,-4.22978 -4.1e-4,-4.23 2.33576,-4.23022 4.22978,-2.33657 4.23,-4.1e-4 4.23022,2.33576 2.33657,4.22978 4.1e-4,4.23 -2.33576,4.23022 -4.22978,2.33657 -4.23,4.1e-4"
         style="fill:none;stroke:#000000;stroke-width:0.05669291;stroke-linecap:round;stroke-linejoin:round;stroke-miterlimit:10;stroke-dasharray:none;stroke-opacity:1"
         id="path165" />
    </g>
    <g
       id="g167"
       transform="matrix(-0.35277777,-3.5280376e-5,-3.5280376e-5,0.35277777,65.04791,84.033828)"
       style="stroke-width:0.05669291;stroke-miterlimit:10;stroke-dasharray:none">
      <path
         d="M -4.23,4.1e-4 C -4.23022,-2.33576 -2.33657,-4.22978 -4.1e-4,-4.23 2.33576,-4.23022 4.22978,-2.33657 4.23,-4.1e-4 4.23022,2.33576 2.33657,4.22978 4.1e-4,4.23 -2.33576,4.23022 -4.22978,2.33657 -4.23,4.1e-4"
         style="fill:none;stroke:#000000;stroke-width:0.05669291;stroke-linecap:round;stroke-linejoin:round;stroke-miterlimit:10;stroke-dasharray:none;stroke-opacity:1"
         id="path169" />
    </g>
    <path
       d="M 115.05416,92.257075 V 59.300579 H 61.523655 v 32.956496 h 53.530505"
       style="fill:none;stroke:#000000;stroke-width:0.02;stroke-linecap:round;stroke-linejoin:round;stroke-miterlimit:10;stroke-dasharray:none;stroke-opacity:1"
       id="path171" />
    <path
       d="M 127.11915,92.257075 V 59.300579"
       style="fill:none;stroke:#000000;stroke-width:0.02;stroke-linecap:round;stroke-linejoin:round;stroke-miterlimit:10;stroke-dasharray:none;stroke-opacity:1"
       id="path173" />
    <g
       id="g175"
       transform="matrix(-0.35277777,-3.5280376e-5,-3.5280376e-5,0.35277777,122.83291,67.523811)"
       style="stroke-width:0.05669291;stroke-miterlimit:10;stroke-dasharray:none">
      <path
         d="M -4.23,4.1e-4 C -4.23022,-2.33576 -2.33657,-4.22978 -4.1e-4,-4.23 2.33576,-4.23022 4.22978,-2.33657 4.23,-4.1e-4 4.23022,2.33576 2.33657,4.22978 4.1e-4,4.23 -2.33576,4.23022 -4.22978,2.33657 -4.23,4.1e-4"
         style="fill:none;stroke:#000000;stroke-width:0.05669291;stroke-linecap:round;stroke-linejoin:round;stroke-miterlimit:10;stroke-dasharray:none;stroke-opacity:1"
         id="path177" />
    </g>
    <g
       id="g179"
       transform="matrix(-0.35277777,-3.5280376e-5,-3.5280376e-5,0.35277777,122.83291,84.033825)"
       style="stroke-width:0.05669291;stroke-miterlimit:10;stroke-dasharray:none">
      <path
         d="M -4.23,4.1e-4 C -4.23022,-2.33576 -2.33657,-4.22978 -4.1e-4,-4.23 2.33576,-4.23022 4.22978,-2.33657 4.23,-4.1e-4 4.23022,2.33576 2.33657,4.22978 4.1e-4,4.23 -2.33576,4.23022 -4.22978,2.33657 -4.23,4.1e-4"
         style="fill:none;stroke:#000000;stroke-width:0.05669291;stroke-linecap:round;stroke-linejoin:round;stroke-miterlimit:10;stroke-dasharray:none;stroke-opacity:1"
         id="path181" />
    </g>
    <path
       d="m 127.11915,59.300579 h -9.017 v 32.956496 h 9.017"
       style="fill:none;stroke:#000000;stroke-width:0.02;stroke-linecap:round;stroke-linejoin:round;stroke-miterlimit:10;stroke-dasharray:none;stroke-opacity:1"
       id="path183" />
    <path
       d="M 174.10915,92.257075 V 59.300579"
       style="fill:none;stroke:#000000;stroke-width:0.02;stroke-linecap:round;stroke-linejoin:round;stroke-miterlimit:10;stroke-dasharray:none;stroke-opacity:1"
       id="path185" />
    <g
       id="g187"
       transform="matrix(-0.35277777,-3.5280376e-5,-3.5280376e-5,0.35277777,169.3784,84.033824)"
       style="stroke-width:0.05669291;stroke-miterlimit:10;stroke-dasharray:none">
      <path
         d="M -4.23,4.1e-4 C -4.23022,-2.33576 -2.33657,-4.22978 -4.1e-4,-4.23 2.33576,-4.23022 4.22978,-2.33657 4.23,-4.1e-4 4.23022,2.33576 2.33657,4.22978 4.1e-4,4.23 -2.33576,4.23022 -4.22978,2.33657 -4.23,4.1e-4"
         style="fill:none;stroke:#000000;stroke-width:0.05669291;stroke-linecap:round;stroke-linejoin:round;stroke-miterlimit:10;stroke-dasharray:none;stroke-opacity:1"
         id="path189" />
    </g>
    <g
       id="g191"
       transform="matrix(-0.35277777,-3.5280376e-5,-3.5280376e-5,0.35277777,169.3784,67.52381)"
       style="stroke-width:0.05669291;stroke-miterlimit:10;stroke-dasharray:none">
      <path
         d="M -4.23,4.1e-4 C -4.23022,-2.33576 -2.33657,-4.22978 -4.1e-4,-4.23 2.33576,-4.23022 4.22978,-2.33657 4.23,-4.1e-4 4.23022,2.33576 2.33657,4.22978 4.1e-4,4.23 -2.33576,4.23022 -4.22978,2.33657 -4.23,4.1e-4"
         style="fill:none;stroke:#000000;stroke-width:0.05669291;stroke-linecap:round;stroke-linejoin:round;stroke-miterlimit:10;stroke-dasharray:none;stroke-opacity:1"
         id="path193" />
    </g>
    <path
       d="m 174.10915,59.300579 h -9.017 v 32.956496 h 9.017"
       style="fill:none;stroke:#000000;stroke-width:0.02;stroke-linecap:round;stroke-linejoin:round;stroke-miterlimit:10;stroke-dasharray:none;stroke-opacity:1"
       id="path195" />
    <path
       d="M 146.29615,92.066582 V 59.046568"
       style="fill:none;stroke:#000000;stroke-width:0.02;stroke-linecap:round;stroke-linejoin:round;stroke-miterlimit:10;stroke-dasharray:none;stroke-opacity:1"
       id="path197" />
    <g
       id="g199"
       transform="matrix(-0.35277777,-3.5280376e-5,-3.5280376e-5,0.35277777,138.51741,67.33334)"
       style="stroke-width:0.05669291;stroke-miterlimit:10;stroke-dasharray:none">
      <path
         d="M -4.23,4.1e-4 C -4.23022,-2.33576 -2.33657,-4.22978 -4.1e-4,-4.23 2.33576,-4.23022 4.22978,-2.33657 4.23,-4.1e-4 4.23022,2.33576 2.33657,4.22978 4.1e-4,4.23 -2.33576,4.23022 -4.22978,2.33657 -4.23,4.1e-4"
         style="fill:none;stroke:#000000;stroke-width:0.05669291;stroke-linecap:round;stroke-linejoin:round;stroke-miterlimit:10;stroke-dasharray:none;stroke-opacity:1"
         id="path201" />
    </g>
    <g
       id="g203"
       transform="matrix(-0.35277777,-3.5280376e-5,-3.5280376e-5,0.35277777,138.51741,83.77984)"
       style="stroke-width:0.05669291;stroke-miterlimit:10;stroke-dasharray:none">
      <path
         d="M -4.23,4.1e-4 C -4.23022,-2.33576 -2.33657,-4.22978 -4.1e-4,-4.23 2.33576,-4.23022 4.22978,-2.33657 4.23,-4.1e-4 4.23022,2.33576 2.33657,4.22978 4.1e-4,4.23 -2.33576,4.23022 -4.22978,2.33657 -4.23,4.1e-4"
         style="fill:none;stroke:#000000;stroke-width:0.05669291;stroke-linecap:round;stroke-linejoin:round;stroke-miterlimit:10;stroke-dasharray:none;stroke-opacity:1"
         id="path205" />
    </g>
    <path
       d="m 146.29615,59.046568 h -11.2395 v 33.020014 h 11.2395"
       style="fill:none;stroke:#000000;stroke-width:0.02;stroke-linecap:round;stroke-linejoin:round;stroke-miterlimit:10;stroke-dasharray:none;stroke-opacity:1"
       id="path207" />
    <path
       d="M 188.52366,92.066582 V 59.046568"
       style="fill:none;stroke:#000000;stroke-width:0.02;stroke-linecap:round;stroke-linejoin:round;stroke-miterlimit:10;stroke-dasharray:none;stroke-opacity:1"
       id="path209" />
    <g
       id="g211"
       transform="matrix(-0.35277777,-3.5280376e-5,-3.5280376e-5,0.35277777,184.9994,83.779836)"
       style="stroke-width:0.05669291;stroke-miterlimit:10;stroke-dasharray:none">
      <path
         d="M -4.23,4.1e-4 C -4.23022,-2.33576 -2.33657,-4.22978 -4.1e-4,-4.23 2.33576,-4.23022 4.22978,-2.33657 4.23,-4.1e-4 4.23022,2.33576 2.33657,4.22978 4.1e-4,4.23 -2.33576,4.23022 -4.22978,2.33657 -4.23,4.1e-4"
         style="fill:none;stroke:#000000;stroke-width:0.05669291;stroke-linecap:round;stroke-linejoin:round;stroke-miterlimit:10;stroke-dasharray:none;stroke-opacity:1"
         id="path213" />
    </g>
    <g
       id="g215"
       transform="matrix(-0.35277777,-3.5280376e-5,-3.5280376e-5,0.35277777,184.99939,67.333336)"
       style="stroke-width:0.05669291;stroke-miterlimit:10;stroke-dasharray:none">
      <path
         d="M -4.23,4.1e-4 C -4.23022,-2.33576 -2.33657,-4.22978 -4.1e-4,-4.23 2.33576,-4.23022 4.22978,-2.33657 4.23,-4.1e-4 4.23022,2.33576 2.33657,4.22978 4.1e-4,4.23 -2.33576,4.23022 -4.22978,2.33657 -4.23,4.1e-4"
         style="fill:none;stroke:#000000;stroke-width:0.05669291;stroke-linecap:round;stroke-linejoin:round;stroke-miterlimit:10;stroke-dasharray:none;stroke-opacity:1"
         id="path217" />
    </g>
    <path
       d="m 188.52366,59.046568 h -11.23951 v 33.020014 h 11.23951"
       style="fill:none;stroke:#000000;stroke-width:0.02;stroke-linecap:round;stroke-linejoin:round;stroke-miterlimit:10;stroke-dasharray:none;stroke-opacity:1"
       id="path219" />
    <g
       id="g221"
       transform="matrix(-0.35277777,-3.5280376e-5,-3.5280376e-5,0.35277777,54.062403,104.60783)"
       style="stroke-width:0.05669291;stroke-miterlimit:10;stroke-dasharray:none">
      <path
         d="M -4.23,4.1e-4 C -4.23022,-2.33576 -2.33657,-4.22978 -4.1e-4,-4.23 2.33576,-4.23022 4.22978,-2.33657 4.23,-4.1e-4 4.23022,2.33576 2.33657,4.22978 4.1e-4,4.23 -2.33576,4.23022 -4.22978,2.33657 -4.23,4.1e-4"
         style="fill:none;stroke:#000000;stroke-width:0.05669291;stroke-linecap:round;stroke-linejoin:round;stroke-miterlimit:10;stroke-dasharray:none;stroke-opacity:1"
         id="path223" />
    </g>
    <g
       id="g225"
       transform="matrix(-0.35277777,-3.5280376e-5,-3.5280376e-5,0.35277777,7.5169072,104.60783)"
       style="stroke-width:0.05669291;stroke-miterlimit:10;stroke-dasharray:none">
      <path
         d="M -4.23,4.1e-4 C -4.23022,-2.33576 -2.33657,-4.22978 -4.1e-4,-4.23 2.33576,-4.23022 4.22978,-2.33657 4.23,-4.1e-4 4.23022,2.33576 2.33657,4.22978 4.1e-4,4.23 -2.33576,4.23022 -4.22978,2.33657 -4.23,4.1e-4"
         style="fill:none;stroke:#000000;stroke-width:0.05669291;stroke-linecap:round;stroke-linejoin:round;stroke-miterlimit:10;stroke-dasharray:none;stroke-opacity:1"
         id="path227" />
    </g>
    <g
       id="g229"
       transform="matrix(-0.35277777,-3.5280376e-5,-3.5280376e-5,0.35277777,54.062402,121.05432)"
       style="stroke-width:0.05669291;stroke-miterlimit:10;stroke-dasharray:none">
      <path
         d="M -4.23,4.1e-4 C -4.23022,-2.33576 -2.33657,-4.22978 -4.1e-4,-4.23 2.33576,-4.23022 4.22978,-2.33657 4.23,-4.1e-4 4.23022,2.33576 2.33657,4.22978 4.1e-4,4.23 -2.33576,4.23022 -4.22978,2.33657 -4.23,4.1e-4"
         style="fill:none;stroke:#000000;stroke-width:0.05669291;stroke-linecap:round;stroke-linejoin:round;stroke-miterlimit:10;stroke-dasharray:none;stroke-opacity:1"
         id="path231" />
    </g>
    <g
       id="g233"
       transform="matrix(-0.35277777,-3.5280376e-5,-3.5280376e-5,0.35277777,7.5169068,121.05432)"
       style="stroke-width:0.05669291;stroke-miterlimit:10;stroke-dasharray:none">
      <path
         d="M -4.23,4.1e-4 C -4.23022,-2.33576 -2.33657,-4.22978 -4.1e-4,-4.23 2.33576,-4.23022 4.22978,-2.33657 4.23,-4.1e-4 4.23022,2.33576 2.33657,4.22978 4.1e-4,4.23 -2.33576,4.23022 -4.22978,2.33657 -4.23,4.1e-4"
         style="fill:none;stroke:#000000;stroke-width:0.05669291;stroke-linecap:round;stroke-linejoin:round;stroke-miterlimit:10;stroke-dasharray:none;stroke-opacity:1"
         id="path235" />
    </g>
    <path
       d="M 58.666155,129.34107 V 96.321081 H 2.9131564 V 129.34107 H 58.666155"
       style="fill:none;stroke:#000000;stroke-width:0.02;stroke-linecap:round;stroke-linejoin:round;stroke-miterlimit:10;stroke-dasharray:none;stroke-opacity:1"
       id="path237" />
    <g
       id="g239"
       transform="matrix(-0.35277777,-3.5280376e-5,-3.5280376e-5,0.35277777,111.2124,104.60783)"
       style="stroke-width:0.05669291;stroke-miterlimit:10;stroke-dasharray:none">
      <path
         d="M -4.23,4.1e-4 C -4.23022,-2.33576 -2.33657,-4.22978 -4.1e-4,-4.23 2.33576,-4.23022 4.22978,-2.33657 4.23,-4.1e-4 4.23022,2.33576 2.33657,4.22978 4.1e-4,4.23 -2.33576,4.23022 -4.22978,2.33657 -4.23,4.1e-4"
         style="fill:none;stroke:#000000;stroke-width:0.05669291;stroke-linecap:round;stroke-linejoin:round;stroke-miterlimit:10;stroke-dasharray:none;stroke-opacity:1"
         id="path241" />
    </g>
    <g
       id="g243"
       transform="matrix(-0.35277777,-3.5280376e-5,-3.5280376e-5,0.35277777,64.730406,104.60783)"
       style="stroke-width:0.05669291;stroke-miterlimit:10;stroke-dasharray:none">
      <path
         d="M -4.23,4.1e-4 C -4.23022,-2.33576 -2.33657,-4.22978 -4.1e-4,-4.23 2.33576,-4.23022 4.22978,-2.33657 4.23,-4.1e-4 4.23022,2.33576 2.33657,4.22978 4.1e-4,4.23 -2.33576,4.23022 -4.22978,2.33657 -4.23,4.1e-4"
         style="fill:none;stroke:#000000;stroke-width:0.05669291;stroke-linecap:round;stroke-linejoin:round;stroke-miterlimit:10;stroke-dasharray:none;stroke-opacity:1"
         id="path245" />
    </g>
    <g
       id="g247"
       transform="matrix(-0.35277777,-3.5280376e-5,-3.5280376e-5,0.35277777,111.2124,121.05432)"
       style="stroke-width:0.05669291;stroke-miterlimit:10;stroke-dasharray:none">
      <path
         d="M -4.23,4.1e-4 C -4.23022,-2.33576 -2.33657,-4.22978 -4.1e-4,-4.23 2.33576,-4.23022 4.22978,-2.33657 4.23,-4.1e-4 4.23022,2.33576 2.33657,4.22978 4.1e-4,4.23 -2.33576,4.23022 -4.22978,2.33657 -4.23,4.1e-4"
         style="fill:none;stroke:#000000;stroke-width:0.05669291;stroke-linecap:round;stroke-linejoin:round;stroke-miterlimit:10;stroke-dasharray:none;stroke-opacity:1"
         id="path249" />
    </g>
    <g
       id="g251"
       transform="matrix(-0.35277777,-3.5280376e-5,-3.5280376e-5,0.35277777,64.730406,121.05433)"
       style="stroke-width:0.05669291;stroke-miterlimit:10;stroke-dasharray:none">
      <path
         d="M -4.23,4.1e-4 C -4.23022,-2.33576 -2.33657,-4.22978 -4.1e-4,-4.23 2.33576,-4.23022 4.22978,-2.33657 4.23,-4.1e-4 4.23022,2.33576 2.33657,4.22978 4.1e-4,4.23 -2.33576,4.23022 -4.22978,2.33657 -4.23,4.1e-4"
         style="fill:none;stroke:#000000;stroke-width:0.05669291;stroke-linecap:round;stroke-linejoin:round;stroke-miterlimit:10;stroke-dasharray:none;stroke-opacity:1"
         id="path253" />
    </g>
    <path
       d="M 114.67315,129.34107 V 96.321081 H 61.206152 v 33.019989 h 53.466998"
       style="fill:none;stroke:#000000;stroke-width:0.02;stroke-linecap:round;stroke-linejoin:round;stroke-miterlimit:10;stroke-dasharray:none;stroke-opacity:1"
       id="path255" />
    <path
       d="M 159.88515,92.447567 V 59.491072"
       style="fill:none;stroke:#000000;stroke-width:0.02;stroke-linecap:round;stroke-linejoin:round;stroke-miterlimit:10;stroke-dasharray:none;stroke-opacity:1"
       id="path257" />
    <g
       id="g259"
       transform="matrix(-0.35277777,-3.5280376e-5,-3.5280376e-5,0.35277777,155.5989,67.714319)"
       style="stroke-width:0.05669291;stroke-miterlimit:10;stroke-dasharray:none">
      <path
         d="M -4.23,4.1e-4 C -4.23022,-2.33576 -2.33657,-4.22978 -4.1e-4,-4.23 2.33576,-4.23022 4.22978,-2.33657 4.23,-4.1e-4 4.23022,2.33576 2.33657,4.22978 4.1e-4,4.23 -2.33576,4.23022 -4.22978,2.33657 -4.23,4.1e-4"
         style="fill:none;stroke:#000000;stroke-width:0.05669291;stroke-linecap:round;stroke-linejoin:round;stroke-miterlimit:10;stroke-dasharray:none;stroke-opacity:1"
         id="path261" />
    </g>
    <g
       id="g263"
       transform="matrix(-0.35277777,-3.5280376e-5,-3.5280376e-5,0.35277777,155.5989,84.22434)"
       style="stroke-width:0.05669291;stroke-miterlimit:10;stroke-dasharray:none">
      <path
         d="M -4.23,4.1e-4 C -4.23022,-2.33576 -2.33657,-4.22978 -4.1e-4,-4.23 2.33576,-4.23022 4.22978,-2.33657 4.23,-4.1e-4 4.23022,2.33576 2.33657,4.22978 4.1e-4,4.23 -2.33576,4.23022 -4.22978,2.33657 -4.23,4.1e-4"
         style="fill:none;stroke:#000000;stroke-width:0.05669291;stroke-linecap:round;stroke-linejoin:round;stroke-miterlimit:10;stroke-dasharray:none;stroke-opacity:1"
         id="path265" />
    </g>
    <path
       d="m 159.88515,59.491072 h -9.017 v 32.956495 h 9.017"
       style="fill:none;stroke:#000000;stroke-width:0.02;stroke-linecap:round;stroke-linejoin:round;stroke-miterlimit:10;stroke-dasharray:none;stroke-opacity:1"
       id="path267" />
    <path
       d="M 206.87514,92.447567 V 59.491072"
       style="fill:none;stroke:#000000;stroke-width:0.02;stroke-linecap:round;stroke-linejoin:round;stroke-miterlimit:10;stroke-dasharray:none;stroke-opacity:1"
       id="path269" />
    <g
       id="g271"
       transform="matrix(-0.35277777,-3.5280376e-5,-3.5280376e-5,0.35277777,202.1444,84.224339)"
       style="stroke-width:0.05669291;stroke-miterlimit:10;stroke-dasharray:none">
      <path
         d="M -4.23,4.1e-4 C -4.23022,-2.33576 -2.33657,-4.22978 -4.1e-4,-4.23 2.33576,-4.23022 4.22978,-2.33657 4.23,-4.1e-4 4.23022,2.33576 2.33657,4.22978 4.1e-4,4.23 -2.33576,4.23022 -4.22978,2.33657 -4.23,4.1e-4"
         style="fill:none;stroke:#000000;stroke-width:0.05669291;stroke-linecap:round;stroke-linejoin:round;stroke-miterlimit:10;stroke-dasharray:none;stroke-opacity:1"
         id="path273" />
    </g>
    <g
       id="g275"
       transform="matrix(-0.35277777,-3.5280376e-5,-3.5280376e-5,0.35277777,202.1444,67.714326)"
       style="stroke-width:0.05669291;stroke-miterlimit:10;stroke-dasharray:none">
      <path
         d="M -4.23,4.1e-4 C -4.23022,-2.33576 -2.33657,-4.22978 -4.1e-4,-4.23 2.33576,-4.23022 4.22978,-2.33657 4.23,-4.1e-4 4.23022,2.33576 2.33657,4.22978 4.1e-4,4.23 -2.33576,4.23022 -4.22978,2.33657 -4.23,4.1e-4"
         style="fill:none;stroke:#000000;stroke-width:0.05669291;stroke-linecap:round;stroke-linejoin:round;stroke-miterlimit:10;stroke-dasharray:none;stroke-opacity:1"
         id="path277" />
    </g>
    <path
       d="m 206.87514,59.491072 h -9.01699 v 32.956495 h 9.01699"
       style="fill:none;stroke:#000000;stroke-width:0.02;stroke-linecap:round;stroke-linejoin:round;stroke-miterlimit:10;stroke-dasharray:none;stroke-opacity:1"
       id="path279" />
    <path
       d="M 128.96065,129.53157 V 96.575071"
       style="fill:none;stroke:#000000;stroke-width:0.02;stroke-linecap:round;stroke-linejoin:round;stroke-miterlimit:10;stroke-dasharray:none;stroke-opacity:1"
       id="path281" />
    <g
       id="g283"
       transform="matrix(-0.35277777,-3.5280376e-5,-3.5280376e-5,0.35277777,121.1819,104.79832)"
       style="stroke-width:0.05669291;stroke-miterlimit:10;stroke-dasharray:none">
      <path
         d="M -4.23,4.1e-4 C -4.23022,-2.33576 -2.33657,-4.22978 -4.1e-4,-4.23 2.33576,-4.23022 4.22978,-2.33657 4.23,-4.1e-4 4.23022,2.33576 2.33657,4.22978 4.1e-4,4.23 -2.33576,4.23022 -4.22978,2.33657 -4.23,4.1e-4"
         style="fill:none;stroke:#000000;stroke-width:0.05669291;stroke-linecap:round;stroke-linejoin:round;stroke-miterlimit:10;stroke-dasharray:none;stroke-opacity:1"
         id="path285" />
    </g>
    <g
       id="g287"
       transform="matrix(-0.35277777,-3.5280376e-5,-3.5280376e-5,0.35277777,121.1819,121.30833)"
       style="stroke-width:0.05669291;stroke-miterlimit:10;stroke-dasharray:none">
      <path
         d="M -4.23,4.1e-4 C -4.23022,-2.33576 -2.33657,-4.22978 -4.1e-4,-4.23 2.33576,-4.23022 4.22978,-2.33657 4.23,-4.1e-4 4.23022,2.33576 2.33657,4.22978 4.1e-4,4.23 -2.33576,4.23022 -4.22978,2.33657 -4.23,4.1e-4"
         style="fill:none;stroke:#000000;stroke-width:0.05669291;stroke-linecap:round;stroke-linejoin:round;stroke-miterlimit:10;stroke-dasharray:none;stroke-opacity:1"
         id="path289" />
    </g>
    <path
       d="m 128.96065,96.575071 h -11.2395 v 32.956499 h 11.2395"
       style="fill:none;stroke:#000000;stroke-width:0.02;stroke-linecap:round;stroke-linejoin:round;stroke-miterlimit:10;stroke-dasharray:none;stroke-opacity:1"
       id="path291" />
    <path
       d="M 171.18815,129.53157 V 96.575071"
       style="fill:none;stroke:#000000;stroke-width:0.02;stroke-linecap:round;stroke-linejoin:round;stroke-miterlimit:10;stroke-dasharray:none;stroke-opacity:1"
       id="path293" />
    <g
       id="g295"
       transform="matrix(-0.35277777,-3.5280376e-5,-3.5280376e-5,0.35277777,167.7274,121.30833)"
       style="stroke-width:0.05669291;stroke-miterlimit:10;stroke-dasharray:none">
      <path
         d="M -4.23,4.1e-4 C -4.23022,-2.33576 -2.33657,-4.22978 -4.1e-4,-4.23 2.33576,-4.23022 4.22978,-2.33657 4.23,-4.1e-4 4.23022,2.33576 2.33657,4.22978 4.1e-4,4.23 -2.33576,4.23022 -4.22978,2.33657 -4.23,4.1e-4"
         style="fill:none;stroke:#000000;stroke-width:0.05669291;stroke-linecap:round;stroke-linejoin:round;stroke-miterlimit:10;stroke-dasharray:none;stroke-opacity:1"
         id="path297" />
    </g>
    <g
       id="g299"
       transform="matrix(-0.35277777,-3.5280376e-5,-3.5280376e-5,0.35277777,167.7274,104.79832)"
       style="stroke-width:0.05669291;stroke-miterlimit:10;stroke-dasharray:none">
      <path
         d="M -4.23,4.1e-4 C -4.23022,-2.33576 -2.33657,-4.22978 -4.1e-4,-4.23 2.33576,-4.23022 4.22978,-2.33657 4.23,-4.1e-4 4.23022,2.33576 2.33657,4.22978 4.1e-4,4.23 -2.33576,4.23022 -4.22978,2.33657 -4.23,4.1e-4"
         style="fill:none;stroke:#000000;stroke-width:0.05669291;stroke-linecap:round;stroke-linejoin:round;stroke-miterlimit:10;stroke-dasharray:none;stroke-opacity:1"
         id="path301" />
    </g>
    <path
       d="m 171.18815,96.575071 h -11.2395 v 32.956499 h 11.2395"
       style="fill:none;stroke:#000000;stroke-width:0.02;stroke-linecap:round;stroke-linejoin:round;stroke-miterlimit:10;stroke-dasharray:none;stroke-opacity:1"
       id="path303" />
    <g
       id="g305"
       transform="matrix(-0.35277777,-3.5280376e-5,-3.5280376e-5,0.35277777,28.28141,156.80482)"
       style="stroke-width:0.05669291;stroke-miterlimit:10;stroke-dasharray:none">
      <path
         d="M -51.03,0.00489 C -51.0327,-28.1782 -28.18798,-51.0273 -0.00489,-51.03 28.1782,-51.0327 51.0273,-28.18798 51.03,-0.00489 51.0327,28.1782 28.18798,51.0273 0.00489,51.03 -28.1782,51.0327 -51.0273,28.18798 -51.03,0.00489"
         style="fill:none;stroke:#000000;stroke-width:0.05669291;stroke-linecap:round;stroke-linejoin:round;stroke-miterlimit:10;stroke-dasharray:none;stroke-opacity:1"
         id="path307" />
    </g>
    <g
       id="g309"
       transform="matrix(-0.35277777,-3.5280376e-5,-3.5280376e-5,0.35277777,44.854906,173.37833)"
       style="stroke-width:0.05669291;stroke-miterlimit:10;stroke-dasharray:none">
      <path
         d="M -4.23,4.1e-4 C -4.23022,-2.33576 -2.33657,-4.22978 -4.1e-4,-4.23 2.33576,-4.23022 4.22978,-2.33657 4.23,-4.1e-4 4.23022,2.33576 2.33657,4.22978 4.1e-4,4.23 -2.33576,4.23022 -4.22978,2.33657 -4.23,4.1e-4"
         style="fill:none;stroke:#000000;stroke-width:0.05669291;stroke-linecap:round;stroke-linejoin:round;stroke-miterlimit:10;stroke-dasharray:none;stroke-opacity:1"
         id="path311" />
    </g>
    <g
       id="g313"
       transform="matrix(-0.35277777,-3.5280376e-5,-3.5280376e-5,0.35277777,11.644407,173.37833)"
       style="stroke-width:0.05669291;stroke-miterlimit:10;stroke-dasharray:none">
      <path
         d="M -4.23,4.1e-4 C -4.23022,-2.33576 -2.33657,-4.22978 -4.1e-4,-4.23 2.33576,-4.23022 4.22978,-2.33657 4.23,-4.1e-4 4.23022,2.33576 2.33657,4.22978 4.1e-4,4.23 -2.33576,4.23022 -4.22978,2.33657 -4.23,4.1e-4"
         style="fill:none;stroke:#000000;stroke-width:0.05669291;stroke-linecap:round;stroke-linejoin:round;stroke-miterlimit:10;stroke-dasharray:none;stroke-opacity:1"
         id="path315" />
    </g>
    <g
       id="g317"
       transform="matrix(-0.35277777,-3.5280376e-5,-3.5280376e-5,0.35277777,44.854906,140.16783)"
       style="stroke-width:0.05669291;stroke-miterlimit:10;stroke-dasharray:none">
      <path
         d="M -4.23,4.1e-4 C -4.23022,-2.33576 -2.33657,-4.22978 -4.1e-4,-4.23 2.33576,-4.23022 4.22978,-2.33657 4.23,-4.1e-4 4.23022,2.33576 2.33657,4.22978 4.1e-4,4.23 -2.33576,4.23022 -4.22978,2.33657 -4.23,4.1e-4"
         style="fill:none;stroke:#000000;stroke-width:0.05669291;stroke-linecap:round;stroke-linejoin:round;stroke-miterlimit:10;stroke-dasharray:none;stroke-opacity:1"
         id="path319" />
    </g>
    <g
       id="g321"
       transform="matrix(-0.35277777,-3.5280376e-5,-3.5280376e-5,0.35277777,11.644407,140.16782)"
       style="stroke-width:0.05669291;stroke-miterlimit:10;stroke-dasharray:none">
      <path
         d="M -4.23,4.1e-4 C -4.23022,-2.33576 -2.33657,-4.22978 -4.1e-4,-4.23 2.33576,-4.23022 4.22978,-2.33657 4.23,-4.1e-4 4.23022,2.33576 2.33657,4.22978 4.1e-4,4.23 -2.33576,4.23022 -4.22978,2.33657 -4.23,4.1e-4"
         style="fill:none;stroke:#000000;stroke-width:0.05669291;stroke-linecap:round;stroke-linejoin:round;stroke-miterlimit:10;stroke-dasharray:none;stroke-opacity:1"
         id="path323" />
    </g>
    <path
       d="m 11.231656,131.75407 v 3.683 l -4.3179996,4.31801 h -3.683 v 34.09949 h 3.683 l 4.3179996,4.25451 v 3.7465 h 34.099496 v -3.7465 l 4.254507,-4.25451 h 3.746496 v -34.09949 h -3.746496 l -4.254507,-4.31801 v -3.683 H 11.231656"
       style="fill:none;stroke:#000000;stroke-width:0.02;stroke-linecap:round;stroke-linejoin:round;stroke-miterlimit:10;stroke-dasharray:none;stroke-opacity:1"
       id="path325" />
    <g
       id="g327"
       transform="matrix(-0.35277777,-3.5280376e-5,-3.5280376e-5,0.35277777,81.113412,157.43982)"
       style="stroke-width:0.05669291;stroke-miterlimit:10;stroke-dasharray:none">
      <path
         d="M -51.03,0.00489 C -51.0327,-28.1782 -28.18798,-51.0273 -0.00489,-51.03 28.1782,-51.0327 51.0273,-28.18798 51.03,-0.00489 51.0327,28.1782 28.18798,51.0273 0.00489,51.03 -28.1782,51.0327 -51.0273,28.18798 -51.03,0.00489"
         style="fill:none;stroke:#000000;stroke-width:0.05669291;stroke-linecap:round;stroke-linejoin:round;stroke-miterlimit:10;stroke-dasharray:none;stroke-opacity:1"
         id="path329" />
    </g>
    <g
       id="g331"
       transform="matrix(-0.35277777,-3.5280376e-5,-3.5280376e-5,0.35277777,97.750408,174.01332)"
       style="stroke-width:0.05669291;stroke-miterlimit:10;stroke-dasharray:none">
      <path
         d="M -4.23,4.1e-4 C -4.23022,-2.33576 -2.33657,-4.22978 -4.1e-4,-4.23 2.33576,-4.23022 4.22978,-2.33657 4.23,-4.1e-4 4.23022,2.33576 2.33657,4.22978 4.1e-4,4.23 -2.33576,4.23022 -4.22978,2.33657 -4.23,4.1e-4"
         style="fill:none;stroke:#000000;stroke-width:0.05669291;stroke-linecap:round;stroke-linejoin:round;stroke-miterlimit:10;stroke-dasharray:none;stroke-opacity:1"
         id="path333" />
    </g>
    <g
       id="g335"
       transform="matrix(-0.35277777,-3.5280376e-5,-3.5280376e-5,0.35277777,64.476405,174.01333)"
       style="stroke-width:0.05669291;stroke-miterlimit:10;stroke-dasharray:none">
      <path
         d="M -4.23,4.1e-4 C -4.23022,-2.33576 -2.33657,-4.22978 -4.1e-4,-4.23 2.33576,-4.23022 4.22978,-2.33657 4.23,-4.1e-4 4.23022,2.33576 2.33657,4.22978 4.1e-4,4.23 -2.33576,4.23022 -4.22978,2.33657 -4.23,4.1e-4"
         style="fill:none;stroke:#000000;stroke-width:0.05669291;stroke-linecap:round;stroke-linejoin:round;stroke-miterlimit:10;stroke-dasharray:none;stroke-opacity:1"
         id="path337" />
    </g>
    <g
       id="g339"
       transform="matrix(-0.35277777,-3.5280376e-5,-3.5280376e-5,0.35277777,97.750411,140.80282)"
       style="stroke-width:0.05669291;stroke-miterlimit:10;stroke-dasharray:none">
      <path
         d="M -4.23,4.1e-4 C -4.23022,-2.33576 -2.33657,-4.22978 -4.1e-4,-4.23 2.33576,-4.23022 4.22978,-2.33657 4.23,-4.1e-4 4.23022,2.33576 2.33657,4.22978 4.1e-4,4.23 -2.33576,4.23022 -4.22978,2.33657 -4.23,4.1e-4"
         style="fill:none;stroke:#000000;stroke-width:0.05669291;stroke-linecap:round;stroke-linejoin:round;stroke-miterlimit:10;stroke-dasharray:none;stroke-opacity:1"
         id="path341" />
    </g>
    <g
       id="g343"
       transform="matrix(-0.35277777,-3.5280376e-5,-3.5280376e-5,0.35277777,64.476406,140.80282)"
       style="stroke-width:0.05669291;stroke-miterlimit:10;stroke-dasharray:none">
      <path
         d="M -4.23,4.1e-4 C -4.23022,-2.33576 -2.33657,-4.22978 -4.1e-4,-4.23 2.33576,-4.23022 4.22978,-2.33657 4.23,-4.1e-4 4.23022,2.33576 2.33657,4.22978 4.1e-4,4.23 -2.33576,4.23022 -4.22978,2.33657 -4.23,4.1e-4"
         style="fill:none;stroke:#000000;stroke-width:0.05669291;stroke-linecap:round;stroke-linejoin:round;stroke-miterlimit:10;stroke-dasharray:none;stroke-opacity:1"
         id="path345" />
    </g>
    <path
       d="m 64.063655,132.32558 v 3.7465 l -4.318003,4.31799 h -3.682993 v 34.0995 h 3.682993 l 4.318003,4.2545 v 3.7465 h 34.099499 v -3.7465 l 4.317996,-4.2545 h 3.683 v -34.0995 h -3.683 l -4.317996,-4.31799 v -3.7465 H 64.063655"
       style="fill:none;stroke:#000000;stroke-width:0.02;stroke-linecap:round;stroke-linejoin:round;stroke-miterlimit:10;stroke-dasharray:none;stroke-opacity:1"
       id="path347" />
    <g
       id="g349"
       transform="matrix(-0.35277777,-3.5280376e-5,-3.5280376e-5,0.35277777,134.5169,157.43982)"
       style="stroke-width:0.05669291;stroke-miterlimit:10;stroke-dasharray:none">
      <path
         d="M -51.03,0.00489 C -51.0327,-28.1782 -28.18798,-51.0273 -0.00489,-51.03 28.1782,-51.0327 51.0273,-28.18798 51.03,-0.00489 51.0327,28.1782 28.18798,51.0273 0.00489,51.03 -28.1782,51.0327 -51.0273,28.18798 -51.03,0.00489"
         style="fill:none;stroke:#000000;stroke-width:0.05669291;stroke-linecap:round;stroke-linejoin:round;stroke-miterlimit:10;stroke-dasharray:none;stroke-opacity:1"
         id="path351" />
    </g>
    <g
       id="g353"
       transform="matrix(-0.35277777,-3.5280376e-5,-3.5280376e-5,0.35277777,151.15391,174.01332)"
       style="stroke-width:0.05669291;stroke-miterlimit:10;stroke-dasharray:none">
      <path
         d="M -4.23,4.1e-4 C -4.23022,-2.33576 -2.33657,-4.22978 -4.1e-4,-4.23 2.33576,-4.23022 4.22978,-2.33657 4.23,-4.1e-4 4.23022,2.33576 2.33657,4.22978 4.1e-4,4.23 -2.33576,4.23022 -4.22978,2.33657 -4.23,4.1e-4"
         style="fill:none;stroke:#000000;stroke-width:0.05669291;stroke-linecap:round;stroke-linejoin:round;stroke-miterlimit:10;stroke-dasharray:none;stroke-opacity:1"
         id="path355" />
    </g>
    <g
       id="g357"
       transform="matrix(-0.35277777,-3.5280376e-5,-3.5280376e-5,0.35277777,117.87991,174.01332)"
       style="stroke-width:0.05669291;stroke-miterlimit:10;stroke-dasharray:none">
      <path
         d="M -4.23,4.1e-4 C -4.23022,-2.33576 -2.33657,-4.22978 -4.1e-4,-4.23 2.33576,-4.23022 4.22978,-2.33657 4.23,-4.1e-4 4.23022,2.33576 2.33657,4.22978 4.1e-4,4.23 -2.33576,4.23022 -4.22978,2.33657 -4.23,4.1e-4"
         style="fill:none;stroke:#000000;stroke-width:0.05669291;stroke-linecap:round;stroke-linejoin:round;stroke-miterlimit:10;stroke-dasharray:none;stroke-opacity:1"
         id="path359" />
    </g>
    <g
       id="g361"
       transform="matrix(-0.35277777,-3.5280376e-5,-3.5280376e-5,0.35277777,151.15391,140.80281)"
       style="stroke-width:0.05669291;stroke-miterlimit:10;stroke-dasharray:none">
      <path
         d="M -4.23,4.1e-4 C -4.23022,-2.33576 -2.33657,-4.22978 -4.1e-4,-4.23 2.33576,-4.23022 4.22978,-2.33657 4.23,-4.1e-4 4.23022,2.33576 2.33657,4.22978 4.1e-4,4.23 -2.33576,4.23022 -4.22978,2.33657 -4.23,4.1e-4"
         style="fill:none;stroke:#000000;stroke-width:0.05669291;stroke-linecap:round;stroke-linejoin:round;stroke-miterlimit:10;stroke-dasharray:none;stroke-opacity:1"
         id="path363" />
    </g>
    <g
       id="g365"
       transform="matrix(-0.35277777,-3.5280376e-5,-3.5280376e-5,0.35277777,117.87991,140.80282)"
       style="stroke-width:0.05669291;stroke-miterlimit:10;stroke-dasharray:none">
      <path
         d="M -4.23,4.1e-4 C -4.23022,-2.33576 -2.33657,-4.22978 -4.1e-4,-4.23 2.33576,-4.23022 4.22978,-2.33657 4.23,-4.1e-4 4.23022,2.33576 2.33657,4.22978 4.1e-4,4.23 -2.33576,4.23022 -4.22978,2.33657 -4.23,4.1e-4"
         style="fill:none;stroke:#000000;stroke-width:0.05669291;stroke-linecap:round;stroke-linejoin:round;stroke-miterlimit:10;stroke-dasharray:none;stroke-opacity:1"
         id="path367" />
    </g>
    <path
       d="m 117.46715,132.32558 v 3.7465 l -4.31799,4.31799 h -3.683 v 34.0995 h 3.683 l 4.31799,4.2545 v 3.7465 h 34.09951 v -3.7465 l 4.31799,-4.2545 h 3.683 v -34.0995 h -3.683 l -4.31799,-4.31799 v -3.7465 h -34.09951"
       style="fill:none;stroke:#000000;stroke-width:0.02;stroke-linecap:round;stroke-linejoin:round;stroke-miterlimit:10;stroke-dasharray:none;stroke-opacity:1"
       id="path369" />
    <g
       id="g371"
       transform="matrix(-0.35277777,-3.5280376e-5,-3.5280376e-5,0.35277777,186.8409,157.82083)"
       style="stroke-width:0.05669291;stroke-miterlimit:10;stroke-dasharray:none">
      <path
         d="M -51.03,0.00489 C -51.0327,-28.1782 -28.18798,-51.0273 -0.00489,-51.03 28.1782,-51.0327 51.0273,-28.18798 51.03,-0.00489 51.0327,28.1782 28.18798,51.0273 0.00489,51.03 -28.1782,51.0327 -51.0273,28.18798 -51.03,0.00489"
         style="fill:none;stroke:#000000;stroke-width:0.05669291;stroke-linecap:round;stroke-linejoin:round;stroke-miterlimit:10;stroke-dasharray:none;stroke-opacity:1"
         id="path373" />
    </g>
    <g
       id="g375"
       transform="matrix(-0.35277777,-3.5280376e-5,-3.5280376e-5,0.35277777,203.41442,174.45783)"
       style="stroke-width:0.05669291;stroke-miterlimit:10;stroke-dasharray:none">
      <path
         d="M -4.23,4.1e-4 C -4.23022,-2.33576 -2.33657,-4.22978 -4.1e-4,-4.23 2.33576,-4.23022 4.22978,-2.33657 4.23,-4.1e-4 4.23022,2.33576 2.33657,4.22978 4.1e-4,4.23 -2.33576,4.23022 -4.22978,2.33657 -4.23,4.1e-4"
         style="fill:none;stroke:#000000;stroke-width:0.05669291;stroke-linecap:round;stroke-linejoin:round;stroke-miterlimit:10;stroke-dasharray:none;stroke-opacity:1"
         id="path377" />
    </g>
    <g
       id="g379"
       transform="matrix(-0.35277777,-3.5280376e-5,-3.5280376e-5,0.35277777,170.20391,174.45783)"
       style="stroke-width:0.05669291;stroke-miterlimit:10;stroke-dasharray:none">
      <path
         d="M -4.23,4.1e-4 C -4.23022,-2.33576 -2.33657,-4.22978 -4.1e-4,-4.23 2.33576,-4.23022 4.22978,-2.33657 4.23,-4.1e-4 4.23022,2.33576 2.33657,4.22978 4.1e-4,4.23 -2.33576,4.23022 -4.22978,2.33657 -4.23,4.1e-4"
         style="fill:none;stroke:#000000;stroke-width:0.05669291;stroke-linecap:round;stroke-linejoin:round;stroke-miterlimit:10;stroke-dasharray:none;stroke-opacity:1"
         id="path381" />
    </g>
    <g
       id="g383"
       transform="matrix(-0.35277777,-3.5280376e-5,-3.5280376e-5,0.35277777,203.41441,141.24732)"
       style="stroke-width:0.05669291;stroke-miterlimit:10;stroke-dasharray:none">
      <path
         d="M -4.23,4.1e-4 C -4.23022,-2.33576 -2.33657,-4.22978 -4.1e-4,-4.23 2.33576,-4.23022 4.22978,-2.33657 4.23,-4.1e-4 4.23022,2.33576 2.33657,4.22978 4.1e-4,4.23 -2.33576,4.23022 -4.22978,2.33657 -4.23,4.1e-4"
         style="fill:none;stroke:#000000;stroke-width:0.05669291;stroke-linecap:round;stroke-linejoin:round;stroke-miterlimit:10;stroke-dasharray:none;stroke-opacity:1"
         id="path385" />
    </g>
    <g
       id="g387"
       transform="matrix(-0.35277777,-3.5280376e-5,-3.5280376e-5,0.35277777,170.20391,141.24732)"
       style="stroke-width:0.05669291;stroke-miterlimit:10;stroke-dasharray:none">
      <path
         d="M -4.23,4.1e-4 C -4.23022,-2.33576 -2.33657,-4.22978 -4.1e-4,-4.23 2.33576,-4.23022 4.22978,-2.33657 4.23,-4.1e-4 4.23022,2.33576 2.33657,4.22978 4.1e-4,4.23 -2.33576,4.23022 -4.22978,2.33657 -4.23,4.1e-4"
         style="fill:none;stroke:#000000;stroke-width:0.05669291;stroke-linecap:round;stroke-linejoin:round;stroke-miterlimit:10;stroke-dasharray:none;stroke-opacity:1"
         id="path389" />
    </g>
    <path
       d="m 169.79116,132.77007 v 3.7465 l -4.31801,4.2545 h -3.683 v 34.0995 h 3.683 l 4.31801,4.31801 v 3.7465 h 34.0995 v -3.7465 l 4.2545,-4.31801 h 3.7465 v -34.0995 h -3.7465 l -4.2545,-4.2545 v -3.7465 h -34.0995"
       style="fill:none;stroke:#000000;stroke-width:0.02;stroke-linecap:round;stroke-linejoin:round;stroke-miterlimit:10;stroke-dasharray:none;stroke-opacity:1"
       id="path391" />
    <g
       id="g393"
       transform="matrix(-0.35277777,-3.5280376e-5,-3.5280376e-5,0.35277777,27.900406,209.50982)"
       style="stroke-width:0.05669291;stroke-miterlimit:10;stroke-dasharray:none">
      <path
         d="M -51.03,0.00489 C -51.0327,-28.1782 -28.18798,-51.0273 -0.00489,-51.03 28.1782,-51.0327 51.0273,-28.18798 51.03,-0.00489 51.0327,28.1782 28.18798,51.0273 0.00489,51.03 -28.1782,51.0327 -51.0273,28.18798 -51.03,0.00489"
         style="fill:none;stroke:#000000;stroke-width:0.05669291;stroke-linecap:round;stroke-linejoin:round;stroke-miterlimit:10;stroke-dasharray:none;stroke-opacity:1"
         id="path395" />
    </g>
    <g
       id="g397"
       transform="matrix(-0.35277777,-3.5280376e-5,-3.5280376e-5,0.35277777,44.537402,226.08332)"
       style="stroke-width:0.05669291;stroke-miterlimit:10;stroke-dasharray:none">
      <path
         d="M -4.23,4.1e-4 C -4.23022,-2.33576 -2.33657,-4.22978 -4.1e-4,-4.23 2.33576,-4.23022 4.22978,-2.33657 4.23,-4.1e-4 4.23022,2.33576 2.33657,4.22978 4.1e-4,4.23 -2.33576,4.23022 -4.22978,2.33657 -4.23,4.1e-4"
         style="fill:none;stroke:#000000;stroke-width:0.05669291;stroke-linecap:round;stroke-linejoin:round;stroke-miterlimit:10;stroke-dasharray:none;stroke-opacity:1"
         id="path399" />
    </g>
    <g
       id="g401"
       transform="matrix(-0.35277777,-3.5280376e-5,-3.5280376e-5,0.35277777,11.326906,226.08332)"
       style="stroke-width:0.05669291;stroke-miterlimit:10;stroke-dasharray:none">
      <path
         d="M -4.23,4.1e-4 C -4.23022,-2.33576 -2.33657,-4.22978 -4.1e-4,-4.23 2.33576,-4.23022 4.22978,-2.33657 4.23,-4.1e-4 4.23022,2.33576 2.33657,4.22978 4.1e-4,4.23 -2.33576,4.23022 -4.22978,2.33657 -4.23,4.1e-4"
         style="fill:none;stroke:#000000;stroke-width:0.05669291;stroke-linecap:round;stroke-linejoin:round;stroke-miterlimit:10;stroke-dasharray:none;stroke-opacity:1"
         id="path403" />
    </g>
    <g
       id="g405"
       transform="matrix(-0.35277777,-3.5280376e-5,-3.5280376e-5,0.35277777,44.537403,192.87283)"
       style="stroke-width:0.05669291;stroke-miterlimit:10;stroke-dasharray:none">
      <path
         d="M -4.23,4.1e-4 C -4.23022,-2.33576 -2.33657,-4.22978 -4.1e-4,-4.23 2.33576,-4.23022 4.22978,-2.33657 4.23,-4.1e-4 4.23022,2.33576 2.33657,4.22978 4.1e-4,4.23 -2.33576,4.23022 -4.22978,2.33657 -4.23,4.1e-4"
         style="fill:none;stroke:#000000;stroke-width:0.05669291;stroke-linecap:round;stroke-linejoin:round;stroke-miterlimit:10;stroke-dasharray:none;stroke-opacity:1"
         id="path407" />
    </g>
    <g
       id="g409"
       transform="matrix(-0.35277777,-3.5280376e-5,-3.5280376e-5,0.35277777,11.326907,192.87283)"
       style="stroke-width:0.05669291;stroke-miterlimit:10;stroke-dasharray:none">
      <path
         d="M -4.23,4.1e-4 C -4.23022,-2.33576 -2.33657,-4.22978 -4.1e-4,-4.23 2.33576,-4.23022 4.22978,-2.33657 4.23,-4.1e-4 4.23022,2.33576 2.33657,4.22978 4.1e-4,4.23 -2.33576,4.23022 -4.22978,2.33657 -4.23,4.1e-4"
         style="fill:none;stroke:#000000;stroke-width:0.05669291;stroke-linecap:round;stroke-linejoin:round;stroke-miterlimit:10;stroke-dasharray:none;stroke-opacity:1"
         id="path411" />
    </g>
    <path
       d="m 10.850656,184.45908 v 3.68299 l -4.2544996,4.31801 h -3.7465 v 34.09949 h 3.7465 l 4.2544996,4.2545 v 3.7465 h 34.099503 v -3.7465 l 4.317996,-4.2545 h 3.683 v -34.09949 h -3.683 l -4.317996,-4.31801 v -3.68299 H 10.850656"
       style="fill:none;stroke:#000000;stroke-width:0.02;stroke-linecap:round;stroke-linejoin:round;stroke-miterlimit:10;stroke-dasharray:none;stroke-opacity:1"
       id="path413" />
    <g
       id="g415"
       transform="matrix(-0.35277777,-3.5280376e-5,-3.5280376e-5,0.35277777,80.795901,210.14483)"
       style="stroke-width:0.05669291;stroke-miterlimit:10;stroke-dasharray:none">
      <path
         d="M -51.03,0.00489 C -51.0327,-28.1782 -28.18798,-51.0273 -0.00489,-51.03 28.1782,-51.0327 51.0273,-28.18798 51.03,-0.00489 51.0327,28.1782 28.18798,51.0273 0.00489,51.03 -28.1782,51.0327 -51.0273,28.18798 -51.03,0.00489"
         style="fill:none;stroke:#000000;stroke-width:0.05669291;stroke-linecap:round;stroke-linejoin:round;stroke-miterlimit:10;stroke-dasharray:none;stroke-opacity:1"
         id="path417" />
    </g>
    <g
       id="g419"
       transform="matrix(-0.35277777,-3.5280376e-5,-3.5280376e-5,0.35277777,97.369404,226.71832)"
       style="stroke-width:0.05669291;stroke-miterlimit:10;stroke-dasharray:none">
      <path
         d="M -4.23,4.1e-4 C -4.23022,-2.33576 -2.33657,-4.22978 -4.1e-4,-4.23 2.33576,-4.23022 4.22978,-2.33657 4.23,-4.1e-4 4.23022,2.33576 2.33657,4.22978 4.1e-4,4.23 -2.33576,4.23022 -4.22978,2.33657 -4.23,4.1e-4"
         style="fill:none;stroke:#000000;stroke-width:0.05669291;stroke-linecap:round;stroke-linejoin:round;stroke-miterlimit:10;stroke-dasharray:none;stroke-opacity:1"
         id="path421" />
    </g>
    <g
       id="g423"
       transform="matrix(-0.35277777,-3.5280376e-5,-3.5280376e-5,0.35277777,64.158905,226.71832)"
       style="stroke-width:0.05669291;stroke-miterlimit:10;stroke-dasharray:none">
      <path
         d="M -4.23,4.1e-4 C -4.23022,-2.33576 -2.33657,-4.22978 -4.1e-4,-4.23 2.33576,-4.23022 4.22978,-2.33657 4.23,-4.1e-4 4.23022,2.33576 2.33657,4.22978 4.1e-4,4.23 -2.33576,4.23022 -4.22978,2.33657 -4.23,4.1e-4"
         style="fill:none;stroke:#000000;stroke-width:0.05669291;stroke-linecap:round;stroke-linejoin:round;stroke-miterlimit:10;stroke-dasharray:none;stroke-opacity:1"
         id="path425" />
    </g>
    <g
       id="g427"
       transform="matrix(-0.35277777,-3.5280376e-5,-3.5280376e-5,0.35277777,97.369407,193.50783)"
       style="stroke-width:0.05669291;stroke-miterlimit:10;stroke-dasharray:none">
      <path
         d="M -4.23,4.1e-4 C -4.23022,-2.33576 -2.33657,-4.22978 -4.1e-4,-4.23 2.33576,-4.23022 4.22978,-2.33657 4.23,-4.1e-4 4.23022,2.33576 2.33657,4.22978 4.1e-4,4.23 -2.33576,4.23022 -4.22978,2.33657 -4.23,4.1e-4"
         style="fill:none;stroke:#000000;stroke-width:0.05669291;stroke-linecap:round;stroke-linejoin:round;stroke-miterlimit:10;stroke-dasharray:none;stroke-opacity:1"
         id="path429" />
    </g>
    <g
       id="g431"
       transform="matrix(-0.35277777,-3.5280376e-5,-3.5280376e-5,0.35277777,64.158906,193.50782)"
       style="stroke-width:0.05669291;stroke-miterlimit:10;stroke-dasharray:none">
      <path
         d="M -4.23,4.1e-4 C -4.23022,-2.33576 -2.33657,-4.22978 -4.1e-4,-4.23 2.33576,-4.23022 4.22978,-2.33657 4.23,-4.1e-4 4.23022,2.33576 2.33657,4.22978 4.1e-4,4.23 -2.33576,4.23022 -4.22978,2.33657 -4.23,4.1e-4"
         style="fill:none;stroke:#000000;stroke-width:0.05669291;stroke-linecap:round;stroke-linejoin:round;stroke-miterlimit:10;stroke-dasharray:none;stroke-opacity:1"
         id="path433" />
    </g>
    <path
       d="m 63.746155,185.09407 v 3.683 l -4.318,4.318 h -3.683 v 34.0995 h 3.683 l 4.318,4.2545 v 3.7465 h 34.099503 v -3.7465 l 4.254502,-4.2545 h 3.74649 v -34.0995 h -3.74649 l -4.254502,-4.318 v -3.683 H 63.746155"
       style="fill:none;stroke:#000000;stroke-width:0.02;stroke-linecap:round;stroke-linejoin:round;stroke-miterlimit:10;stroke-dasharray:none;stroke-opacity:1"
       id="path435" />
    <g
       id="g437"
       transform="matrix(-0.35277777,-3.5280376e-5,-3.5280376e-5,0.35277777,134.19941,210.14483)"
       style="stroke-width:0.05669291;stroke-miterlimit:10;stroke-dasharray:none">
      <path
         d="M -51.03,0.00489 C -51.0327,-28.1782 -28.18798,-51.0273 -0.00489,-51.03 28.1782,-51.0327 51.0273,-28.18798 51.03,-0.00489 51.0327,28.1782 28.18798,51.0273 0.00489,51.03 -28.1782,51.0327 -51.0273,28.18798 -51.03,0.00489"
         style="fill:none;stroke:#000000;stroke-width:0.05669291;stroke-linecap:round;stroke-linejoin:round;stroke-miterlimit:10;stroke-dasharray:none;stroke-opacity:1"
         id="path439" />
    </g>
    <g
       id="g441"
       transform="matrix(-0.35277777,-3.5280376e-5,-3.5280376e-5,0.35277777,150.7729,226.71832)"
       style="stroke-width:0.05669291;stroke-miterlimit:10;stroke-dasharray:none">
      <path
         d="M -4.23,4.1e-4 C -4.23022,-2.33576 -2.33657,-4.22978 -4.1e-4,-4.23 2.33576,-4.23022 4.22978,-2.33657 4.23,-4.1e-4 4.23022,2.33576 2.33657,4.22978 4.1e-4,4.23 -2.33576,4.23022 -4.22978,2.33657 -4.23,4.1e-4"
         style="fill:none;stroke:#000000;stroke-width:0.05669291;stroke-linecap:round;stroke-linejoin:round;stroke-miterlimit:10;stroke-dasharray:none;stroke-opacity:1"
         id="path443" />
    </g>
    <g
       id="g445"
       transform="matrix(-0.35277777,-3.5280376e-5,-3.5280376e-5,0.35277777,117.5624,226.71832)"
       style="stroke-width:0.05669291;stroke-miterlimit:10;stroke-dasharray:none">
      <path
         d="M -4.23,4.1e-4 C -4.23022,-2.33576 -2.33657,-4.22978 -4.1e-4,-4.23 2.33576,-4.23022 4.22978,-2.33657 4.23,-4.1e-4 4.23022,2.33576 2.33657,4.22978 4.1e-4,4.23 -2.33576,4.23022 -4.22978,2.33657 -4.23,4.1e-4"
         style="fill:none;stroke:#000000;stroke-width:0.05669291;stroke-linecap:round;stroke-linejoin:round;stroke-miterlimit:10;stroke-dasharray:none;stroke-opacity:1"
         id="path447" />
    </g>
    <g
       id="g449"
       transform="matrix(-0.35277777,-3.5280376e-5,-3.5280376e-5,0.35277777,150.77291,193.50783)"
       style="stroke-width:0.05669291;stroke-miterlimit:10;stroke-dasharray:none">
      <path
         d="M -4.23,4.1e-4 C -4.23022,-2.33576 -2.33657,-4.22978 -4.1e-4,-4.23 2.33576,-4.23022 4.22978,-2.33657 4.23,-4.1e-4 4.23022,2.33576 2.33657,4.22978 4.1e-4,4.23 -2.33576,4.23022 -4.22978,2.33657 -4.23,4.1e-4"
         style="fill:none;stroke:#000000;stroke-width:0.05669291;stroke-linecap:round;stroke-linejoin:round;stroke-miterlimit:10;stroke-dasharray:none;stroke-opacity:1"
         id="path451" />
    </g>
    <g
       id="g453"
       transform="matrix(-0.35277777,-3.5280376e-5,-3.5280376e-5,0.35277777,117.5624,193.50783)"
       style="stroke-width:0.05669291;stroke-miterlimit:10;stroke-dasharray:none">
      <path
         d="M -4.23,4.1e-4 C -4.23022,-2.33576 -2.33657,-4.22978 -4.1e-4,-4.23 2.33576,-4.23022 4.22978,-2.33657 4.23,-4.1e-4 4.23022,2.33576 2.33657,4.22978 4.1e-4,4.23 -2.33576,4.23022 -4.22978,2.33657 -4.23,4.1e-4"
         style="fill:none;stroke:#000000;stroke-width:0.05669291;stroke-linecap:round;stroke-linejoin:round;stroke-miterlimit:10;stroke-dasharray:none;stroke-opacity:1"
         id="path455" />
    </g>
    <path
       d="m 117.14966,185.09407 v 3.683 l -4.31801,4.318 h -3.683 v 34.0995 h 3.683 l 4.31801,4.2545 v 3.7465 h 34.0995 v -3.7465 l 4.2545,-4.2545 h 3.7465 v -34.0995 h -3.7465 l -4.2545,-4.318 v -3.683 h -34.0995"
       style="fill:none;stroke:#000000;stroke-width:0.02;stroke-linecap:round;stroke-linejoin:round;stroke-miterlimit:10;stroke-dasharray:none;stroke-opacity:1"
       id="path457" />
    <g
       id="g459"
       transform="matrix(-0.35277777,-3.5280376e-5,-3.5280376e-5,0.35277777,186.4599,210.58932)"
       style="stroke-width:0.05669291;stroke-miterlimit:10;stroke-dasharray:none">
      <path
         d="M -51.03,0.00489 C -51.0327,-28.1782 -28.18798,-51.0273 -0.00489,-51.03 28.1782,-51.0327 51.0273,-28.18798 51.03,-0.00489 51.0327,28.1782 28.18798,51.0273 0.00489,51.03 -28.1782,51.0327 -51.0273,28.18798 -51.03,0.00489"
         style="fill:none;stroke:#000000;stroke-width:0.05669291;stroke-linecap:round;stroke-linejoin:round;stroke-miterlimit:10;stroke-dasharray:none;stroke-opacity:1"
         id="path461" />
    </g>
    <g
       id="g463"
       transform="matrix(-0.35277777,-3.5280376e-5,-3.5280376e-5,0.35277777,203.09691,227.16282)"
       style="stroke-width:0.05669291;stroke-miterlimit:10;stroke-dasharray:none">
      <path
         d="M -4.23,4.1e-4 C -4.23022,-2.33576 -2.33657,-4.22978 -4.1e-4,-4.23 2.33576,-4.23022 4.22978,-2.33657 4.23,-4.1e-4 4.23022,2.33576 2.33657,4.22978 4.1e-4,4.23 -2.33576,4.23022 -4.22978,2.33657 -4.23,4.1e-4"
         style="fill:none;stroke:#000000;stroke-width:0.05669291;stroke-linecap:round;stroke-linejoin:round;stroke-miterlimit:10;stroke-dasharray:none;stroke-opacity:1"
         id="path465" />
    </g>
    <g
       id="g467"
       transform="matrix(-0.35277777,-3.5280376e-5,-3.5280376e-5,0.35277777,169.8864,227.16282)"
       style="stroke-width:0.05669291;stroke-miterlimit:10;stroke-dasharray:none">
      <path
         d="M -4.23,4.1e-4 C -4.23022,-2.33576 -2.33657,-4.22978 -4.1e-4,-4.23 2.33576,-4.23022 4.22978,-2.33657 4.23,-4.1e-4 4.23022,2.33576 2.33657,4.22978 4.1e-4,4.23 -2.33576,4.23022 -4.22978,2.33657 -4.23,4.1e-4"
         style="fill:none;stroke:#000000;stroke-width:0.05669291;stroke-linecap:round;stroke-linejoin:round;stroke-miterlimit:10;stroke-dasharray:none;stroke-opacity:1"
         id="path469" />
    </g>
    <g
       id="g471"
       transform="matrix(-0.35277777,-3.5280376e-5,-3.5280376e-5,0.35277777,203.0969,193.95233)"
       style="stroke-width:0.05669291;stroke-miterlimit:10;stroke-dasharray:none">
      <path
         d="M -4.23,4.1e-4 C -4.23022,-2.33576 -2.33657,-4.22978 -4.1e-4,-4.23 2.33576,-4.23022 4.22978,-2.33657 4.23,-4.1e-4 4.23022,2.33576 2.33657,4.22978 4.1e-4,4.23 -2.33576,4.23022 -4.22978,2.33657 -4.23,4.1e-4"
         style="fill:none;stroke:#000000;stroke-width:0.05669291;stroke-linecap:round;stroke-linejoin:round;stroke-miterlimit:10;stroke-dasharray:none;stroke-opacity:1"
         id="path473" />
    </g>
    <g
       id="g475"
       transform="matrix(-0.35277777,-3.5280376e-5,-3.5280376e-5,0.35277777,169.8864,193.95233)"
       style="stroke-width:0.05669291;stroke-miterlimit:10;stroke-dasharray:none">
      <path
         d="M -4.23,4.1e-4 C -4.23022,-2.33576 -2.33657,-4.22978 -4.1e-4,-4.23 2.33576,-4.23022 4.22978,-2.33657 4.23,-4.1e-4 4.23022,2.33576 2.33657,4.22978 4.1e-4,4.23 -2.33576,4.23022 -4.22978,2.33657 -4.23,4.1e-4"
         style="fill:none;stroke:#000000;stroke-width:0.05669291;stroke-linecap:round;stroke-linejoin:round;stroke-miterlimit:10;stroke-dasharray:none;stroke-opacity:1"
         id="path477" />
    </g>
    <path
       d="m 169.41015,185.53858 v 3.683 l -4.2545,4.31799 h -3.7465 v 34.09951 h 3.7465 l 4.2545,4.25449 v 3.7465 h 34.0995 v -3.7465 l 4.318,-4.25449 h 3.74649 v -34.09951 h -3.74649 l -4.318,-4.31799 v -3.683 h -34.0995"
       style="fill:none;stroke:#000000;stroke-width:0.02;stroke-linecap:round;stroke-linejoin:round;stroke-miterlimit:10;stroke-dasharray:none;stroke-opacity:1"
       id="path479" />
    <path
       d="m 214.62215,38.980569 h 22.35199"
       style="fill:none;stroke:#000000;stroke-width:0.02;stroke-linecap:round;stroke-linejoin:round;stroke-miterlimit:10;stroke-dasharray:none;stroke-opacity:1"
       id="path481" />
    <path
       d="M 222.68664,14.279083 211.51065,33.646569"
       style="fill:none;stroke:#000000;stroke-width:0.02;stroke-linecap:round;stroke-linejoin:round;stroke-miterlimit:10;stroke-dasharray:none;stroke-opacity:1"
       id="path483" />
    <path
       d="m 240.02215,33.646569 -11.176,-19.367486"
       style="fill:none;stroke:#000000;stroke-width:0.02;stroke-linecap:round;stroke-linejoin:round;stroke-miterlimit:10;stroke-dasharray:none;stroke-opacity:1"
       id="path485" />
    <g
       id="g487"
       transform="matrix(0.07223831,-0.34530245,-0.34530245,-0.07223831,225.76644,28.979329)"
       style="stroke-width:0.05669291;stroke-miterlimit:10;stroke-dasharray:none">
      <path
         d="m 42.57,0 c 0,5.86936 -1.21373,11.67531 -3.56493,17.05315"
         style="fill:none;stroke:#000000;stroke-width:0.05669291;stroke-linecap:round;stroke-linejoin:round;stroke-miterlimit:10;stroke-dasharray:none;stroke-opacity:1"
         id="path489" />
    </g>
    <g
       id="g491"
       transform="matrix(-0.33516358,0.11008078,0.11008078,0.33516358,225.76641,28.979326)"
       style="stroke-width:0.05669286;stroke-miterlimit:10;stroke-dasharray:none">
      <path
         d="m 42.57,0 c 0,5.86936 -1.21373,11.67531 -3.56493,17.05315"
         style="fill:none;stroke:#000000;stroke-width:0.05669286;stroke-linecap:round;stroke-linejoin:round;stroke-miterlimit:10;stroke-dasharray:none;stroke-opacity:1"
         id="path493" />
    </g>
    <g
       id="g495"
       transform="matrix(0.26290763,0.23522869,0.23522869,-0.26290763,225.76641,28.979326)"
       style="stroke-width:0.05669273;stroke-miterlimit:10;stroke-dasharray:none">
      <path
         d="m 42.57,0 c 0,5.86936 -1.21373,11.67531 -3.56493,17.05315"
         style="fill:none;stroke:#000000;stroke-width:0.05669273;stroke-linecap:round;stroke-linejoin:round;stroke-miterlimit:10;stroke-dasharray:none;stroke-opacity:1"
         id="path497" />
    </g>
    <path
       d="m 208.65316,3.8650765 v 3.7464999 l -4.2545,4.2544966 h -3.7465 v 34.226506 h 3.7465 l 4.2545,4.2545 v 3.809996 h 34.29 v -3.809996 l 4.19098,-4.2545 h 3.81002 V 11.866073 h -3.81002 L 242.94316,7.6115764 V 3.8650765 h -34.29"
       style="fill:none;stroke:#000000;stroke-width:0.02;stroke-linecap:round;stroke-linejoin:round;stroke-miterlimit:10;stroke-dasharray:none;stroke-opacity:1"
       id="path499" />
    <g
       id="g501"
       transform="matrix(-0.35277777,-3.5280376e-5,-3.5280376e-5,0.35277777,139.7239,100.86131)"
       style="stroke-width:0.05669291;stroke-miterlimit:10;stroke-dasharray:none">
      <path
         d="M -4.23,4.1e-4 C -4.23022,-2.33576 -2.33657,-4.22978 -4.1e-4,-4.23 2.33576,-4.23022 4.22978,-2.33657 4.23,-4.1e-4 4.23022,2.33576 2.33657,4.22978 4.1e-4,4.23 -2.33576,4.23022 -4.22978,2.33657 -4.23,4.1e-4"
         style="fill:none;stroke:#000000;stroke-width:0.05669291;stroke-linecap:round;stroke-linejoin:round;stroke-miterlimit:10;stroke-dasharray:none;stroke-opacity:1"
         id="path503" />
    </g>
    <path
       d="m 136.77115,97.845081 v 30.035499 h 5.969 V 97.845081 h -5.969"
       style="fill:none;stroke:#000000;stroke-width:0.02;stroke-linecap:round;stroke-linejoin:round;stroke-miterlimit:10;stroke-dasharray:none;stroke-opacity:1"
       id="path505" />
    <g
       id="g507"
       transform="matrix(-0.35277777,-3.5280376e-5,-3.5280376e-5,0.35277777,148.04241,100.86131)"
       style="stroke-width:0.05669291;stroke-miterlimit:10;stroke-dasharray:none">
      <path
         d="M -4.23,4.1e-4 C -4.23022,-2.33576 -2.33657,-4.22978 -4.1e-4,-4.23 2.33576,-4.23022 4.22978,-2.33657 4.23,-4.1e-4 4.23022,2.33576 2.33657,4.22978 4.1e-4,4.23 -2.33576,4.23022 -4.22978,2.33657 -4.23,4.1e-4"
         style="fill:none;stroke:#000000;stroke-width:0.05669291;stroke-linecap:round;stroke-linejoin:round;stroke-miterlimit:10;stroke-dasharray:none;stroke-opacity:1"
         id="path509" />
    </g>
    <path
       d="m 145.02615,97.845081 v 30.035499 h 6.0325 V 97.845081 h -6.0325"
       style="fill:none;stroke:#000000;stroke-width:0.02;stroke-linecap:round;stroke-linejoin:round;stroke-miterlimit:10;stroke-dasharray:none;stroke-opacity:1"
       id="path511" />
  </g>
</svg>
