<?xml version="1.0" encoding="UTF-8" standalone="no"?>
<!-- Created with Inkscape (http://www.inkscape.org/) -->

<svg
   width="297mm"
   height="210mm"
   viewBox="0 0 297 210"
   version="1.1"
   id="svg3733"
   inkscape:version="1.1 (c68e22c387, 2021-05-23)"
   sodipodi:docname="LC_inserts_foam_cut.svg"
   xmlns:inkscape="http://www.inkscape.org/namespaces/inkscape"
   xmlns:sodipodi="http://sodipodi.sourceforge.net/DTD/sodipodi-0.dtd"
   xmlns="http://www.w3.org/2000/svg"
   xmlns:svg="http://www.w3.org/2000/svg">
  <sodipodi:namedview
     id="namedview3735"
     pagecolor="#ffffff"
     bordercolor="#666666"
     borderopacity="1.0"
     inkscape:pageshadow="2"
     inkscape:pageopacity="0.0"
     inkscape:pagecheckerboard="0"
     inkscape:document-units="mm"
     showgrid="false"
     inkscape:zoom="0.77771465"
     inkscape:cx="-140.79714"
     inkscape:cy="560.61693"
     inkscape:window-width="3840"
     inkscape:window-height="2066"
     inkscape:window-x="-11"
     inkscape:window-y="-11"
     inkscape:window-maximized="1"
     inkscape:current-layer="layer1" />
  <defs
     id="defs3730">
    <clipPath
       clipPathUnits="userSpaceOnUse"
       id="clipPath3584">
      <path
         d="M 0,0 V 1262.88 H 1785.78 V 0 Z"
         id="path3582" />
    </clipPath>
  </defs>
  <g
     inkscape:label="Ebene 1"
     inkscape:groupmode="layer"
     id="layer1">
    <g
       id="g3586"
       transform="matrix(-0.35277777,-3.5280376e-5,-3.5280376e-5,0.35277777,28.325274,29.139765)"
       style="stroke-width:0.05669291;stroke-miterlimit:10;stroke-dasharray:none">
      <path
         d="M -53.91,0.00517 C -53.91285,-29.7685 -29.77884,-53.90715 -0.00517,-53.91 29.7685,-53.91285 53.90715,-29.77884 53.91,-0.00517 53.91285,29.7685 29.77884,53.90715 0.00517,53.91 -29.7685,53.91285 -53.90715,29.77884 -53.91,0.00517"
         style="fill:none;stroke:#000000;stroke-width:0.05669291;stroke-linecap:round;stroke-linejoin:round;stroke-miterlimit:10;stroke-dasharray:none;stroke-opacity:1"
         id="path3588" />
    </g>
    <g
       id="g3590"
       transform="matrix(-0.35277777,-3.5280376e-5,-3.5280376e-5,0.35277777,44.962274,45.776757)"
       style="stroke-width:0.05669291;stroke-miterlimit:10;stroke-dasharray:none">
      <path
         d="M -4.23,4.1e-4 C -4.23022,-2.33576 -2.33657,-4.22978 -4.1e-4,-4.23 2.33576,-4.23022 4.22978,-2.33657 4.23,-4.1e-4 4.23022,2.33576 2.33657,4.22978 4.1e-4,4.23 -2.33576,4.23022 -4.22978,2.33657 -4.23,4.1e-4"
         style="fill:none;stroke:#000000;stroke-width:0.05669291;stroke-linecap:round;stroke-linejoin:round;stroke-miterlimit:10;stroke-dasharray:none;stroke-opacity:1"
         id="path3592" />
    </g>
    <g
       id="g3594"
       transform="matrix(-0.35277777,-3.5280376e-5,-3.5280376e-5,0.35277777,11.688274,45.776759)"
       style="stroke-width:0.05669291;stroke-miterlimit:10;stroke-dasharray:none">
      <path
         d="M -4.23,4.1e-4 C -4.23022,-2.33576 -2.33657,-4.22978 -4.1e-4,-4.23 2.33576,-4.23022 4.22978,-2.33657 4.23,-4.1e-4 4.23022,2.33576 2.33657,4.22978 4.1e-4,4.23 -2.33576,4.23022 -4.22978,2.33657 -4.23,4.1e-4"
         style="fill:none;stroke:#000000;stroke-width:0.05669291;stroke-linecap:round;stroke-linejoin:round;stroke-miterlimit:10;stroke-dasharray:none;stroke-opacity:1"
         id="path3596" />
    </g>
    <g
       id="g3598"
       transform="matrix(-0.35277777,-3.5280376e-5,-3.5280376e-5,0.35277777,44.962274,12.566251)"
       style="stroke-width:0.05669291;stroke-miterlimit:10;stroke-dasharray:none">
      <path
         d="M -4.23,4.1e-4 C -4.23022,-2.33576 -2.33657,-4.22978 -4.1e-4,-4.23 2.33576,-4.23022 4.22978,-2.33657 4.23,-4.1e-4 4.23022,2.33576 2.33657,4.22978 4.1e-4,4.23 -2.33576,4.23022 -4.22978,2.33657 -4.23,4.1e-4"
         style="fill:none;stroke:#000000;stroke-width:0.05669291;stroke-linecap:round;stroke-linejoin:round;stroke-miterlimit:10;stroke-dasharray:none;stroke-opacity:1"
         id="path3600" />
    </g>
    <g
       id="g3602"
       transform="matrix(-0.35277777,-3.5280376e-5,-3.5280376e-5,0.35277777,11.688275,12.566252)"
       style="stroke-width:0.05669291;stroke-miterlimit:10;stroke-dasharray:none">
      <path
         d="M -4.23,4.1e-4 C -4.23022,-2.33576 -2.33657,-4.22978 -4.1e-4,-4.23 2.33576,-4.23022 4.22978,-2.33657 4.23,-4.1e-4 4.23022,2.33576 2.33657,4.22978 4.1e-4,4.23 -2.33576,4.23022 -4.22978,2.33657 -4.23,4.1e-4"
         style="fill:none;stroke:#000000;stroke-width:0.05669291;stroke-linecap:round;stroke-linejoin:round;stroke-miterlimit:10;stroke-dasharray:none;stroke-opacity:1"
         id="path3604" />
    </g>
    <path
       d="M 10.958024,3.7715271 V 7.6450199 L 6.8305238,11.772523 H 2.9570239 v 34.797985 h 3.8734999 l 4.1275002,4.064007 v 3.937011 h 34.797999 v -3.937011 l 4.064,-4.064007 h 3.937003 V 11.772523 h -3.937003 l -4.064,-4.1275031 V 3.7715271 H 10.958024"
       style="fill:none;stroke:#000000;stroke-width:0.02;stroke-linecap:round;stroke-linejoin:round;stroke-miterlimit:10;stroke-dasharray:none;stroke-opacity:1"
       id="path3606" />
    <g
       id="g3608"
       transform="matrix(-0.35277777,-3.5280376e-5,-3.5280376e-5,0.35277777,81.601767,28.885755)"
       style="stroke-width:0.05669291;stroke-miterlimit:10;stroke-dasharray:none">
      <path
         d="M -53.91,0.00517 C -53.91285,-29.7685 -29.77884,-53.90715 -0.00517,-53.91 29.7685,-53.91285 53.90715,-29.77884 53.91,-0.00517 53.91285,29.7685 29.77884,53.90715 0.00517,53.91 -29.7685,53.91285 -53.90715,29.77884 -53.91,0.00517"
         style="fill:none;stroke:#000000;stroke-width:0.05669291;stroke-linecap:round;stroke-linejoin:round;stroke-miterlimit:10;stroke-dasharray:none;stroke-opacity:1"
         id="path3610" />
    </g>
    <g
       id="g3612"
       transform="matrix(-0.35277777,-3.5280376e-5,-3.5280376e-5,0.35277777,98.238767,45.522769)"
       style="stroke-width:0.05669291;stroke-miterlimit:10;stroke-dasharray:none">
      <path
         d="M -4.23,4.1e-4 C -4.23022,-2.33576 -2.33657,-4.22978 -4.1e-4,-4.23 2.33576,-4.23022 4.22978,-2.33657 4.23,-4.1e-4 4.23022,2.33576 2.33657,4.22978 4.1e-4,4.23 -2.33576,4.23022 -4.22978,2.33657 -4.23,4.1e-4"
         style="fill:none;stroke:#000000;stroke-width:0.05669291;stroke-linecap:round;stroke-linejoin:round;stroke-miterlimit:10;stroke-dasharray:none;stroke-opacity:1"
         id="path3614" />
    </g>
    <g
       id="g3616"
       transform="matrix(-0.35277777,-3.5280376e-5,-3.5280376e-5,0.35277777,65.028273,45.522766)"
       style="stroke-width:0.05669291;stroke-miterlimit:10;stroke-dasharray:none">
      <path
         d="M -4.23,4.1e-4 C -4.23022,-2.33576 -2.33657,-4.22978 -4.1e-4,-4.23 2.33576,-4.23022 4.22978,-2.33657 4.23,-4.1e-4 4.23022,2.33576 2.33657,4.22978 4.1e-4,4.23 -2.33576,4.23022 -4.22978,2.33657 -4.23,4.1e-4"
         style="fill:none;stroke:#000000;stroke-width:0.05669291;stroke-linecap:round;stroke-linejoin:round;stroke-miterlimit:10;stroke-dasharray:none;stroke-opacity:1"
         id="path3618" />
    </g>
    <g
       id="g3620"
       transform="matrix(-0.35277777,-3.5280376e-5,-3.5280376e-5,0.35277777,98.238769,12.312262)"
       style="stroke-width:0.05669291;stroke-miterlimit:10;stroke-dasharray:none">
      <path
         d="M -4.23,4.1e-4 C -4.23022,-2.33576 -2.33657,-4.22978 -4.1e-4,-4.23 2.33576,-4.23022 4.22978,-2.33657 4.23,-4.1e-4 4.23022,2.33576 2.33657,4.22978 4.1e-4,4.23 -2.33576,4.23022 -4.22978,2.33657 -4.23,4.1e-4"
         style="fill:none;stroke:#000000;stroke-width:0.05669291;stroke-linecap:round;stroke-linejoin:round;stroke-miterlimit:10;stroke-dasharray:none;stroke-opacity:1"
         id="path3622" />
    </g>
    <g
       id="g3624"
       transform="matrix(-0.35277777,-3.5280376e-5,-3.5280376e-5,0.35277777,65.028274,12.312267)"
       style="stroke-width:0.05669291;stroke-miterlimit:10;stroke-dasharray:none">
      <path
         d="M -4.23,4.1e-4 C -4.23022,-2.33576 -2.33657,-4.22978 -4.1e-4,-4.23 2.33576,-4.23022 4.22978,-2.33657 4.23,-4.1e-4 4.23022,2.33576 2.33657,4.22978 4.1e-4,4.23 -2.33576,4.23022 -4.22978,2.33657 -4.23,4.1e-4"
         style="fill:none;stroke:#000000;stroke-width:0.05669291;stroke-linecap:round;stroke-linejoin:round;stroke-miterlimit:10;stroke-dasharray:none;stroke-opacity:1"
         id="path3626" />
    </g>
    <path
       d="m 64.234523,3.5175165 v 3.8734928 l -4.064,4.1275037 h -3.937 v 34.798003 h 3.937 l 4.064,4.064007 v 3.936992 h 34.797995 v -3.936992 l 4.064012,-4.064007 h 3.937 V 11.518513 h -3.937 L 99.032518,7.3910093 V 3.5175165 H 64.234523"
       style="fill:none;stroke:#000000;stroke-width:0.02;stroke-linecap:round;stroke-linejoin:round;stroke-miterlimit:10;stroke-dasharray:none;stroke-opacity:1"
       id="path3628" />
    <g
       id="g3630"
       transform="matrix(-0.35277777,-3.5280376e-5,-3.5280376e-5,0.35277777,135.51327,28.695284)"
       style="stroke-width:0.05669291;stroke-miterlimit:10;stroke-dasharray:none">
      <path
         d="M -53.91,0.00517 C -53.91285,-29.7685 -29.77884,-53.90715 -0.00517,-53.91 29.7685,-53.91285 53.90715,-29.77884 53.91,-0.00517 53.91285,29.7685 29.77884,53.90715 0.00517,53.91 -29.7685,53.91285 -53.90715,29.77884 -53.91,0.00517"
         style="fill:none;stroke:#000000;stroke-width:0.05669291;stroke-linecap:round;stroke-linejoin:round;stroke-miterlimit:10;stroke-dasharray:none;stroke-opacity:1"
         id="path3632" />
    </g>
    <g
       id="g3634"
       transform="matrix(-0.35277777,-3.5280376e-5,-3.5280376e-5,0.35277777,152.08677,45.26878)"
       style="stroke-width:0.05669291;stroke-miterlimit:10;stroke-dasharray:none">
      <path
         d="M -4.23,4.1e-4 C -4.23022,-2.33576 -2.33657,-4.22978 -4.1e-4,-4.23 2.33576,-4.23022 4.22978,-2.33657 4.23,-4.1e-4 4.23022,2.33576 2.33657,4.22978 4.1e-4,4.23 -2.33576,4.23022 -4.22978,2.33657 -4.23,4.1e-4"
         style="fill:none;stroke:#000000;stroke-width:0.05669291;stroke-linecap:round;stroke-linejoin:round;stroke-miterlimit:10;stroke-dasharray:none;stroke-opacity:1"
         id="path3636" />
    </g>
    <g
       id="g3638"
       transform="matrix(-0.35277777,-3.5280376e-5,-3.5280376e-5,0.35277777,118.87626,45.268777)"
       style="stroke-width:0.05669291;stroke-miterlimit:10;stroke-dasharray:none">
      <path
         d="M -4.23,4.1e-4 C -4.23022,-2.33576 -2.33657,-4.22978 -4.1e-4,-4.23 2.33576,-4.23022 4.22978,-2.33657 4.23,-4.1e-4 4.23022,2.33576 2.33657,4.22978 4.1e-4,4.23 -2.33576,4.23022 -4.22978,2.33657 -4.23,4.1e-4"
         style="fill:none;stroke:#000000;stroke-width:0.05669291;stroke-linecap:round;stroke-linejoin:round;stroke-miterlimit:10;stroke-dasharray:none;stroke-opacity:1"
         id="path3640" />
    </g>
    <g
       id="g3642"
       transform="matrix(-0.35277777,-3.5280376e-5,-3.5280376e-5,0.35277777,152.08677,12.058274)"
       style="stroke-width:0.05669291;stroke-miterlimit:10;stroke-dasharray:none">
      <path
         d="M -4.23,4.1e-4 C -4.23022,-2.33576 -2.33657,-4.22978 -4.1e-4,-4.23 2.33576,-4.23022 4.22978,-2.33657 4.23,-4.1e-4 4.23022,2.33576 2.33657,4.22978 4.1e-4,4.23 -2.33576,4.23022 -4.22978,2.33657 -4.23,4.1e-4"
         style="fill:none;stroke:#000000;stroke-width:0.05669291;stroke-linecap:round;stroke-linejoin:round;stroke-miterlimit:10;stroke-dasharray:none;stroke-opacity:1"
         id="path3644" />
    </g>
    <g
       id="g3646"
       transform="matrix(-0.35277777,-3.5280376e-5,-3.5280376e-5,0.35277777,118.87627,12.058271)"
       style="stroke-width:0.05669291;stroke-miterlimit:10;stroke-dasharray:none">
      <path
         d="M -4.23,4.1e-4 C -4.23022,-2.33576 -2.33657,-4.22978 -4.1e-4,-4.23 2.33576,-4.23022 4.22978,-2.33657 4.23,-4.1e-4 4.23022,2.33576 2.33657,4.22978 4.1e-4,4.23 -2.33576,4.23022 -4.22978,2.33657 -4.23,4.1e-4"
         style="fill:none;stroke:#000000;stroke-width:0.05669291;stroke-linecap:round;stroke-linejoin:round;stroke-miterlimit:10;stroke-dasharray:none;stroke-opacity:1"
         id="path3648" />
    </g>
    <path
       d="m 118.08252,3.2635271 v 3.9369893 l -4.064,4.0640066 h -3.937 v 34.797982 h 3.937 l 4.064,4.127507 v 3.873514 h 34.798 v -3.873514 l 4.064,-4.127507 h 3.937 V 11.264523 h -3.937 l -4.064,-4.0640066 V 3.2635271 h -34.798"
       style="fill:none;stroke:#000000;stroke-width:0.02;stroke-linecap:round;stroke-linejoin:round;stroke-miterlimit:10;stroke-dasharray:none;stroke-opacity:1"
       id="path3650" />
    <g
       id="g3652"
       transform="matrix(-0.35277777,-3.5280376e-5,-3.5280376e-5,0.35277777,188.66277,28.695282)"
       style="stroke-width:0.05669291;stroke-miterlimit:10;stroke-dasharray:none">
      <path
         d="M -53.91,0.00517 C -53.91285,-29.7685 -29.77884,-53.90715 -0.00517,-53.91 29.7685,-53.91285 53.90715,-29.77884 53.91,-0.00517 53.91285,29.7685 29.77884,53.90715 0.00517,53.91 -29.7685,53.91285 -53.90715,29.77884 -53.91,0.00517"
         style="fill:none;stroke:#000000;stroke-width:0.05669291;stroke-linecap:round;stroke-linejoin:round;stroke-miterlimit:10;stroke-dasharray:none;stroke-opacity:1"
         id="path3654" />
    </g>
    <g
       id="g3656"
       transform="matrix(-0.35277777,-3.5280376e-5,-3.5280376e-5,0.35277777,205.29978,45.268781)"
       style="stroke-width:0.05669291;stroke-miterlimit:10;stroke-dasharray:none">
      <path
         d="M -4.23,4.1e-4 C -4.23022,-2.33576 -2.33657,-4.22978 -4.1e-4,-4.23 2.33576,-4.23022 4.22978,-2.33657 4.23,-4.1e-4 4.23022,2.33576 2.33657,4.22978 4.1e-4,4.23 -2.33576,4.23022 -4.22978,2.33657 -4.23,4.1e-4"
         style="fill:none;stroke:#000000;stroke-width:0.05669291;stroke-linecap:round;stroke-linejoin:round;stroke-miterlimit:10;stroke-dasharray:none;stroke-opacity:1"
         id="path3658" />
    </g>
    <g
       id="g3660"
       transform="matrix(-0.35277777,-3.5280376e-5,-3.5280376e-5,0.35277777,172.02578,45.268775)"
       style="stroke-width:0.05669291;stroke-miterlimit:10;stroke-dasharray:none">
      <path
         d="M -4.23,4.1e-4 C -4.23022,-2.33576 -2.33657,-4.22978 -4.1e-4,-4.23 2.33576,-4.23022 4.22978,-2.33657 4.23,-4.1e-4 4.23022,2.33576 2.33657,4.22978 4.1e-4,4.23 -2.33576,4.23022 -4.22978,2.33657 -4.23,4.1e-4"
         style="fill:none;stroke:#000000;stroke-width:0.05669291;stroke-linecap:round;stroke-linejoin:round;stroke-miterlimit:10;stroke-dasharray:none;stroke-opacity:1"
         id="path3662" />
    </g>
    <g
       id="g3664"
       transform="matrix(-0.35277777,-3.5280376e-5,-3.5280376e-5,0.35277777,205.29978,12.058275)"
       style="stroke-width:0.05669291;stroke-miterlimit:10;stroke-dasharray:none">
      <path
         d="M -4.23,4.1e-4 C -4.23022,-2.33576 -2.33657,-4.22978 -4.1e-4,-4.23 2.33576,-4.23022 4.22978,-2.33657 4.23,-4.1e-4 4.23022,2.33576 2.33657,4.22978 4.1e-4,4.23 -2.33576,4.23022 -4.22978,2.33657 -4.23,4.1e-4"
         style="fill:none;stroke:#000000;stroke-width:0.05669291;stroke-linecap:round;stroke-linejoin:round;stroke-miterlimit:10;stroke-dasharray:none;stroke-opacity:1"
         id="path3666" />
    </g>
    <g
       id="g3668"
       transform="matrix(-0.35277777,-3.5280376e-5,-3.5280376e-5,0.35277777,172.02578,12.058276)"
       style="stroke-width:0.05669291;stroke-miterlimit:10;stroke-dasharray:none">
      <path
         d="M -4.23,4.1e-4 C -4.23022,-2.33576 -2.33657,-4.22978 -4.1e-4,-4.23 2.33576,-4.23022 4.22978,-2.33657 4.23,-4.1e-4 4.23022,2.33576 2.33657,4.22978 4.1e-4,4.23 -2.33576,4.23022 -4.22978,2.33657 -4.23,4.1e-4"
         style="fill:none;stroke:#000000;stroke-width:0.05669291;stroke-linecap:round;stroke-linejoin:round;stroke-miterlimit:10;stroke-dasharray:none;stroke-opacity:1"
         id="path3670" />
    </g>
    <path
       d="m 171.29552,3.2635271 v 3.9369893 l -4.1275,4.0640066 h -3.8735 v 34.797982 h 3.8735 l 4.1275,4.127507 v 3.873514 h 34.79801 v -3.873514 l 4.06399,-4.127507 h 3.93701 V 11.264523 h -3.93701 L 206.09353,7.2005164 V 3.2635271 h -34.79801"
       style="fill:none;stroke:#000000;stroke-width:0.02;stroke-linecap:round;stroke-linejoin:round;stroke-miterlimit:10;stroke-dasharray:none;stroke-opacity:1"
       id="path3672" />
  </g>
</svg>
