<svg viewBox="0 0 96 96" xmlns="http://www.w3.org/2000/svg" xmlns:xlink="http://www.w3.org/1999/xlink" id="Icons_LightBulbAndGear" overflow="hidden"><path d="M55.33 39.17 56.18 36.65 54.26 34.73 51.74 35.58C51.0849 35.2109 50.3861 34.9253 49.66 34.73L48.48 32.38 45.8 32.38 44.61 34.74C43.8813 34.9371 43.1794 35.2225 42.52 35.59L40 34.74 38.08 36.66 38.88 39.18C38.4963 39.8315 38.2004 40.5309 38 41.26L35.64 42.44 35.64 45.08 38 46.27C38.1945 46.9964 38.4801 47.6953 38.85 48.35L38 50.87 40 52.79 42.52 51.93C43.1746 52.3026 43.8734 52.5915 44.6 52.79L45.78 55.14 48.46 55.14 49.65 52.83C50.3639 52.6359 51.0521 52.3572 51.7 52L54.21 52.86 56.13 50.93 55.28 48.42C55.662 47.7603 55.9673 47.0591 56.19 46.33L58.54 45.15 58.54 42.44 56.18 41.25C55.9891 40.5224 55.7033 39.8231 55.33 39.17ZM47.13 47.8C44.9209 47.8 43.13 46.0091 43.13 43.8 43.13 41.5909 44.9209 39.8 47.13 39.8 49.3257 39.8322 51.0978 41.6043 51.13 43.8 51.13 46.0091 49.3391 47.8 47.13 47.8Z"/><path d="M55.72 74.79 38.51 74.79C36.9167 74.8839 35.7011 76.2516 35.7949 77.8449 35.8811 79.3073 37.0477 80.4739 38.51 80.56L55.72 80.56C57.3133 80.4661 58.5289 79.0984 58.4351 77.5051 58.3489 76.0427 57.1823 74.8761 55.72 74.79Z"/><path d="M47.12 90.33C50.3851 90.3248 53.0996 87.8147 53.36 84.56L40.87 84.56C41.1353 87.8163 43.853 90.3252 47.12 90.33Z"/><path d="M72.09 44.47 72.09 43.61C71.8352 29.9604 60.7417 19.0044 47.09 18.92L47.09 18.92C33.4383 19.0044 22.3448 29.9604 22.09 43.61L22.09 44.47C22.1814 47.4304 22.7696 50.3545 23.83 53.12 24.8421 55.7293 26.3118 58.1371 28.17 60.23 30.46 62.72 32.96 67.57 34.02 69.73 34.3442 70.3825 35.0114 70.7936 35.74 70.79L58.44 70.79C59.1686 70.7936 59.8358 70.3825 60.16 69.73 61.22 67.57 63.72 62.73 66.01 60.23 67.8682 58.1371 69.3379 55.7293 70.35 53.12 71.4104 50.3545 71.9986 47.4304 72.09 44.47ZM66.33 44.38C66.2589 46.6779 65.8096 48.9483 65 51.1 64.2407 53.0377 63.1437 54.8254 61.76 56.38 59.5403 59.0224 57.6373 61.9154 56.09 65L38.09 65C36.5604 61.9074 34.6742 59.0043 32.47 56.35 31.0863 54.7954 29.9893 53.0077 29.23 51.07 28.4034 48.9212 27.9371 46.6507 27.85 44.35L27.85 43.63C28.0291 33.13 36.5586 24.6937 47.06 24.63L47.06 24.63C57.5614 24.6937 66.0909 33.13 66.27 43.63Z"/><path d="M47.31 15C48.4146 15 49.31 14.1046 49.31 13L49.31 6C49.31 4.89543 48.4146 4 47.31 4 46.2054 4 45.31 4.89543 45.31 6L45.31 13C45.31 14.1046 46.2054 15 47.31 15Z"/><path d="M23.58 23.79C24.3601 24.5654 25.6199 24.5654 26.4 23.79 27.1754 23.0099 27.1754 21.7501 26.4 20.97L21.45 16C20.6302 15.2598 19.3655 15.3243 18.6252 16.1441 17.936 16.9075 17.9381 18.0691 18.63 18.83Z"/><path d="M69.66 24.76C70.193 24.7604 70.7042 24.548 71.08 24.17L76.02 19.17C76.6643 18.2728 76.4594 17.0232 75.5622 16.3789 74.8543 15.8705 73.8987 15.879 73.2 16.4L68.2 21.4C67.4246 22.1801 67.4246 23.4399 68.2 24.22 68.5938 24.5898 69.1204 24.7846 69.66 24.76Z"/><path d="M16.25 41.5 9.25 41.5C8.14543 41.5 7.25 42.3954 7.25 43.5 7.25 44.6046 8.14543 45.5 9.25 45.5L16.25 45.5C17.3546 45.5 18.25 44.6046 18.25 43.5 18.25 42.3954 17.3546 41.5 16.25 41.5Z"/><path d="M23.58 63.14 18.63 68.14C17.791 68.8585 17.6933 70.121 18.4118 70.96 19.1303 71.799 20.3929 71.8966 21.2318 71.1782 21.3101 71.1112 21.383 71.0382 21.45 70.96L26.4 65.96C27.1185 65.121 27.0208 63.8585 26.1818 63.14 25.4331 62.4988 24.3288 62.4988 23.58 63.14Z"/><path d="M71.08 62.76C70.3398 61.9402 69.0751 61.8757 68.2552 62.6159 67.4354 63.3561 67.3709 64.6208 68.1111 65.4407 68.1551 65.4893 68.2015 65.5359 68.25 65.58L73.25 70.58C73.957 71.4287 75.2181 71.5436 76.0668 70.8366 76.9155 70.1297 77.0303 68.8686 76.3234 68.0199 76.2275 67.9048 76.1191 67.8009 76 67.71Z"/><path d="M85 41.43 78 41.43C76.8954 41.43 76 42.3254 76 43.43 76 44.5346 76.8954 45.43 78 45.43L85 45.43C86.1046 45.43 87 44.5346 87 43.43 87 42.3254 86.1046 41.43 85 41.43Z"/></svg>